<?xml version="1.0" standalone="no"?>
<!DOCTYPE svg PUBLIC "-//W3C//DTD SVG 20010904//EN"
 "http://www.w3.org/TR/2001/REC-SVG-20010904/DTD/svg10.dtd">
<svg version="1.0" xmlns="http://www.w3.org/2000/svg"
 width="700.000000pt" height="700.000000pt" viewBox="0 0 700.000000 700.000000"
 preserveAspectRatio="xMidYMid meet">
<metadata>
Created by potrace 1.14, written by Peter Selinger 2001-2017
</metadata>
<g transform="translate(0.000000,700.000000) scale(0.100000,-0.100000)"
fill="#000000" stroke="none">
<path d="M2754 6898 c103 -105 150 -172 192 -276 46 -115 58 -180 59 -318 l0
-130 65 42 c77 49 219 121 310 157 69 27 287 83 294 76 2 -2 -12 -51 -32 -109
l-37 -105 1 -180 c0 -167 2 -186 27 -268 101 -329 351 -567 682 -653 214 -55
448 -29 650 73 134 67 277 191 350 301 15 23 31 42 34 42 17 0 87 -214 118
-360 27 -129 25 -458 -5 -593 -29 -129 -73 -260 -126 -373 l-43 -91 51 -25
c124 -62 238 -176 300 -302 52 -105 70 -184 70 -306 0 -170 -51 -313 -157
-439 -141 -167 -332 -248 -560 -239 -164 7 -285 55 -415 165 -96 82 -184 230
-212 356 -10 45 -17 56 -29 52 -125 -38 -325 -59 -486 -51 -527 25 -995 304
-1271 755 l-39 64 -7 146 c-9 206 -48 337 -143 487 l-38 59 6 115 c8 154 31
281 76 418 35 107 36 113 17 107 -142 -40 -194 -47 -326 -42 -111 4 -150 9
-220 32 -47 15 -97 33 -111 41 -25 12 -28 10 -95 -58 -176 -179 -394 -296
-642 -344 -114 -22 -319 -22 -432 -1 -217 42 -438 150 -582 285 l-48 45 0
-992 0 -991 60 30 c79 40 216 85 337 112 80 18 131 22 283 22 229 0 285 -10
355 -64 129 -99 282 -167 438 -192 62 -10 80 -18 132 -58 80 -63 220 -209 277
-290 67 -95 127 -202 169 -302 20 -49 39 -89 43 -89 3 0 43 18 89 41 117 57
191 74 322 74 131 -1 206 -18 325 -77 118 -57 248 -186 309 -304 48 -95 81
-212 81 -292 l0 -56 -97 3 c-406 14 -767 -237 -906 -631 -6 -16 -10 -16 -55 7
-26 13 -71 43 -99 65 l-51 40 -45 -77 c-147 -252 -366 -460 -622 -587 -204
-101 -369 -143 -600 -152 -231 -9 -438 28 -630 113 -44 20 -88 38 -98 41 -16
5 -17 -20 -17 -421 l0 -426 1800 0 1800 0 -16 37 c-28 64 -83 207 -84 218 0 6
35 30 77 55 84 49 229 184 282 263 108 160 162 334 163 522 0 176 -32 305
-112 453 l-31 57 38 33 c79 68 237 166 338 209 291 123 602 143 911 57 20 -5
21 -3 12 53 -33 228 84 504 274 648 136 103 274 149 443 149 194 -1 347 -61
485 -191 131 -123 214 -285 227 -442 l6 -67 -49 -19 c-241 -90 -419 -241 -542
-460 -106 -189 -147 -433 -106 -646 27 -145 67 -242 151 -373 44 -68 45 -72
39 -127 -10 -83 -52 -233 -92 -324 -19 -44 -38 -86 -41 -92 -4 -10 102 -13
511 -13 l516 0 0 2656 c0 2525 -1 2656 -17 2651 -10 -3 -45 -15 -78 -27 -84
-31 -194 -50 -283 -50 -70 0 -85 4 -157 40 -78 38 -198 70 -267 70 -71 0 -258
156 -348 289 -57 85 -104 189 -132 292 -32 119 -32 327 1 448 69 258 228 460
461 585 l85 46 -1806 0 -1807 0 102 -102z"/>
</g>
</svg>
