<?xml version="1.0" encoding="iso-8859-1"?>
<!-- Generator: Adobe Illustrator 28.0.0, SVG Export Plug-In . SVG Version: 6.00 Build 0)  -->
<svg version="1.1" id="Ebene_1" xmlns="http://www.w3.org/2000/svg" xmlns:xlink="http://www.w3.org/1999/xlink" x="0px" y="0px"
	 viewBox="0 0 112 112" style="enable-background:new 0 0 112 112;" xml:space="preserve">
<path style="fill:#F5B02E;" d="M90.475,38.046c-0.651-10.998-1.923-21.026-3.886-30.647C85.942,4.271,83.129,2,79.9,2
	c-2.047,0-3.975,0.943-5.297,2.595c-1.015,1.319-1.547,2.92-1.515,4.54L57.228,19.38c-7.876,5.12-16.547,9.104-25.765,11.839
	L21.73,34H16C7.178,34,0,41.178,0,50s7.178,16,16,16h0.599l8.812,39.807C25.948,108.275,28.123,110,30.7,110h11.9
	c2.978,0,5.4-2.423,5.4-5.4V102.4c0-2.972-2.412-5.39-5.323-5.39c-0.006,0-0.013,0-0.019,0c-0.016-0.009-0.053-0.042-0.086-0.092
	l-3.585-16.33L36.69,70.572c7.153,2.554,14.025,5.932,20.438,10.048l15.959,10.344c-0.046,1.747,0.479,3.317,1.521,4.549
	c1.315,1.644,3.244,2.587,5.291,2.587c3.229,0,6.042-2.271,6.689-5.4c1.953-9.578,3.225-19.606,3.884-30.646
	C96.505,61.328,101,56.264,101,50.1C101,43.88,96.505,38.773,90.475,38.046z M90.62,42.188C94.296,42.906,97,46.166,97,50
	c0,3.835-2.704,7.095-6.38,7.812C90.792,52.625,90.792,47.375,90.62,42.188z M82.609,91.803C82.359,93.056,81.194,94,79.9,94
	c-0.878,0-1.626-0.347-2.2-1c-0.328-0.437-0.831-1.323-0.513-2.39c4.456-19.648,5.704-39.419,3.709-58.773
	c-0.127-1.007-0.966-1.748-1.926-1.748c-0.077,0-0.154,0.005-0.233,0.015c-1.087,0.136-1.864,1.104-1.734,2.147
	c1.852,17.929,0.861,36.239-2.941,54.435l-14.589-9.405c-8.314-5.41-17.343-9.535-26.833-12.261l-8.54-2.495v-25.05l8.541-2.496
	c9.404-2.771,18.43-6.896,26.83-12.259l14.593-9.408c0.913,4.286,1.666,8.64,2.24,12.951c0.136,1.077,1.171,1.87,2.259,1.733
	c0.512-0.064,0.994-0.349,1.323-0.781c0.325-0.427,0.475-0.966,0.41-1.479c-0.727-5.604-1.74-11.073-3.006-16.233
	c-0.176-0.876,0.006-1.73,0.511-2.402c0.469-0.626,1.291-1,2.199-1c1.337,0,2.451,0.904,2.71,2.197
	C88.218,36.037,88.184,64.131,82.609,91.803L82.609,91.803z M34.482,79H23.602l-2.878-13h1.007l9.748,2.785
	c0.182,0.045,0.364,0.114,0.546,0.183c0.116,0.044,0.232,0.087,0.348,0.126L34.482,79z M16,38h4v24h-4C9.383,62,4,56.617,4,50
	S9.383,38,16,38z M44,104.6c0,0.72-0.68,1.4-1.4,1.4H30.7c-0.687,0-1.267-0.456-1.412-1.108L24.423,83h10.876l3.316,14.921
	C39.061,99.705,40.737,101,42.6,101c0.72,0,1.4,0.681,1.4,1.4V104.6z"/>
<path style="fill:#F5B02E;" d="M110,48h-4c-1.084,0-2,0.916-2,2s0.916,2,2,2h4c1.084,0,2-0.916,2-2S111.084,48,110,48z"/>
<path style="fill:#F5B02E;" d="M108.137,62.26l-3.488-1.993c-0.466-0.267-1.026-0.34-1.534-0.201
	c-0.491,0.135-0.898,0.449-1.147,0.887c-0.545,0.951-0.237,2.154,0.686,2.683l3.524,2.013c0.233,0.116,0.615,0.253,0.923,0.253
	c0.68,0,1.342-0.399,1.685-0.98c0.329-0.394,0.457-0.905,0.354-1.402C109.025,62.983,108.661,62.526,108.137,62.26z"/>
<path style="fill:#F5B02E;" d="M103.7,40c0.418,0,0.698-0.14,0.948-0.266l3.5-2c0.491-0.281,0.84-0.75,0.958-1.286
	c0.11-0.504,0.004-1.015-0.272-1.397c-0.281-0.491-0.75-0.84-1.286-0.958c-0.506-0.111-1.015-0.003-1.396,0.272l-3.5,2
	c-0.491,0.281-0.841,0.75-0.958,1.286c-0.11,0.503-0.004,1.014,0.306,1.448C102.416,39.655,103.067,40,103.7,40z"/>
</svg>
