<svg xmlns="http://www.w3.org/2000/svg" viewBox="0 0 250 358.682" width="250" height="358.6821"><path style="fill:#6b432a" d="m119.568 329.561-.572-.115c.046-.232 4.66-23.357 5.779-39.247.881-12.521-3.852-91.095-6.126-128.862-.649-10.77-1.078-17.885-1.128-19.342-.226-6.539 4.969-26.805 5.191-27.665l.565.146c-.054.21-5.395 21.043-5.172 27.498.05 1.449.478 8.561 1.127 19.323 2.275 37.777 7.01 116.384 6.126 128.938-1.122 15.927-5.742 39.088-5.789 39.321l-.001.005zm.067.123-.531-.241c.167-.369 16.788-37.145 25.705-53.587 8.908-16.427 49.195-99.036 49.599-99.87l.524.255c-.406.833-40.695 83.454-49.61 99.89-8.916 16.439-25.522 53.184-25.687 53.553zm-.624.529c-.044-.542-4.528-54.583-15.001-90.818-6.112-21.154-31.505-79.18-31.761-79.763l.534-.235c.256.585 25.661 58.645 31.787 79.836 10.49 36.291 14.978 90.39 15.022 90.932l-.581.048zm.735.236-.561-.161c.014-.047 1.411-4.819 6.043-12.104 4.267-6.71 12.237-17.002 25.977-27.932 8.918-7.098 25.05-26.987 25.212-27.187l.453.367c-.163.197-16.335 20.144-25.303 27.277-13.663 10.869-21.591 21.098-25.83 27.76-4.594 7.222-5.978 11.933-5.991 11.98zm.007-.028-.574-.104c.185-1.021-1.629-5.802-3.924-11.854-7.031-18.535-20.118-53.032-13.781-73.696 3.669-11.965 4.715-22.957 5.556-41.631.518-11.488-.177-13.098-.389-13.323a1.19 1.19 0 0 0-.232.355l-.536-.23c.059-.14.382-.828.887-.713.439.099 1.466.334.854 13.936-.844 18.724-1.894 29.751-5.582 41.776-6.279 20.472 6.762 54.849 13.769 73.318 2.815 7.419 4.158 11.036 3.952 12.166zm-.317-.695c-6.079-5.989-24.095-27.295-33.767-41.895-8.935-13.487-14.838-37.759-14.897-38.002l.567-.137c.058.243 5.938 24.415 14.816 37.815 9.653 14.569 27.626 35.828 33.691 41.801l-.41.418zm-1.895 19.386c-.083-8.089 1.641-20.694 1.658-20.821l.578.08c-.018.126-1.735 12.688-1.653 20.735l-.583.006zm4.997 2.127c-.245-13.128-3.316-21.68-3.347-21.764l.548-.197c.032.086 3.134 8.72 3.382 21.954l-.583.007zm-6.473 3.051c-.374-2.799-.317-8.782-.314-9.036.374-10.384 3.262-16.044 3.292-16.1l.518.269c-.029.055-2.859 5.613-3.226 15.844 0 .054-.058 6.187.31 8.945l-.58.078zm3.236-23.811c-.722 0-1.288-.423-1.288-.963s.566-.963 1.288-.963c.722 0 1.288.423 1.288.963s-.566.963-1.288.963zm0-1.343c-.403 0-.704.197-.704.38 0 .182.301.38.704.38.403 0 .704-.197.704-.38 0-.182-.304-.378-.704-.378v-.002zm0 1.343c-.722 0-1.288-.423-1.288-.963s.566-.963 1.288-.963c.722 0 1.288.423 1.288.963s-.566.963-1.288.963zm0-1.343c-.403 0-.704.197-.704.38 0 .182.301.38.704.38.403 0 .704-.197.704-.38 0-.182-.304-.378-.704-.378v-.002zm.653.268-.58-.061a51.339 51.339 0 0 1 1.716-5.718c3.995-12.225 13.349-40.865 15.273-73.637 1.244-21.196 22.025-47.802 22.234-48.07l.458.361c-.209.265-20.876 26.729-22.11 47.742-1.928 32.848-11.299 61.534-15.301 73.784a54.577 54.577 0 0 0-1.691 5.595l.001.004zm2.34 29.278c-3.725-18.161-3.036-28.113-2.945-29.188a300.955 300.955 0 0 0 0-35.991 210.671 210.671 0 0 1 0-24.234l.583.035a210.186 210.186 0 0 0 0 24.154c.72 12.017.72 24.066 0 36.083-.09 1.067-.774 10.943 2.934 29.022l-.572.119zm2.554-12.583c-1.577-12.612-5.481-16.116-5.521-16.15l.38-.444c.167.142 4.11 3.637 5.718 16.521l-.577.073z"/><ellipse transform="rotate(-84.664 128.506 56.108)" style="fill:#355478" cx="128.511" cy="56.11" rx="56.181" ry="46.79"/><path style="fill:#2e4969" d="M149.013 105.719a48.797 48.797 0 0 0 6.627-4.985 40.735 40.735 0 0 1-23.776 5.182c-25.718-2.41-44.221-29.398-41.325-60.279 1.5-15.999 8.45-29.902 18.376-39.253l.014-.011c.341-.321.686-.637 1.035-.946-14.93 8.319-26.083 25.574-28.033 46.366-2.895 30.88 15.607 57.871 41.325 60.279a41.068 41.068 0 0 0 25.753-6.351"/><ellipse transform="rotate(-24.245 48.486 105.65)" style="fill:#f5b02e" cx="48.489" cy="105.647" rx="46.77" ry="56.157"/><path style="fill:#f59f2e" d="M90.809 138.606a49.102 49.102 0 0 0 3.304-7.609 40.718 40.718 0 0 1-18.114 16.248c-23.553 10.607-52.97-3.721-65.706-32.001C3.69 100.59 2.871 85.065 6.885 72.031l.004-.01c.138-.449.282-.893.432-1.335-8.873 14.608-10.049 35.12-1.473 54.162 12.736 28.28 42.153 42.607 65.706 32.001A41.072 41.072 0 0 0 90.81 138.61"/><path style="fill:#fff" d="M72.409 69.889c5.769 6.172 7.708 13.734 4.33 16.891-3.378 3.157-9.055-1.545-14.825-7.716S52.47 67.587 55.847 64.43c3.376-3.157 10.792-.714 16.562 5.459z"/><ellipse transform="rotate(-7.862 97.519 131.315)" style="fill:#39c2c2" cx="97.506" cy="131.326" rx="46.793" ry="56.184"/><ellipse transform="rotate(-81.854 203.015 118.023)" style="fill:#39c2c2" cx="203.015" cy="118.021" rx="56.157" ry="46.771"/><path style="fill:#2fadad" d="M67.041 87.309c-7.533 11.373-11.127 26.503-8.93 42.428 4.238 30.724 28.418 52.769 54.007 49.24a40.723 40.723 0 0 0 21.961-10.478 48.876 48.876 0 0 1-5.315 6.369l-.024.019a41.077 41.077 0 0 1-23.602 12.05c-25.589 3.53-49.767-18.516-54.007-49.24-2.854-20.688 4.062-40.036 16.696-51.546a60.31 60.31 0 0 0-.789 1.158m160.929 76.555-.002.001.002-.001zm-6.863 4.661a41.073 41.073 0 0 1-26.032 5.088c-25.571-3.659-42.736-31.518-38.34-62.22 2.96-20.673 14.941-37.364 30.259-44.945-.367.293-.729.591-1.084.895l-.016.011c-10.369 8.856-17.987 22.403-20.264 38.308-4.395 30.702 12.77 58.559 38.34 62.22a40.728 40.728 0 0 0 23.999-4.017 48.858 48.858 0 0 1-6.864 4.655m-60.604-59.01.001-.004c.069-.482.163-.952.241-1.429-.079.478-.173.949-.242 1.433z"/><path style="fill:#f6636b" d="M104.931 192.847c-7.755-30.021-34.311-49.123-59.314-42.664-25.003 6.459-38.986 36.032-31.231 66.053 7.589 29.379 33.182 48.284 57.705 43.028l-1.017 3.059a.358.358 0 0 0 .227.45c.1.033.208.02.297-.035l.085-.052a1.633 1.633 0 0 1 1.048-.229l.133.016c.396.048.797-.05 1.124-.278a1.627 1.627 0 0 1 1.091-.282c.397.04.795-.067 1.118-.301l.108-.079a1.631 1.631 0 0 1 1.028-.308h.099a.356.356 0 0 0 .258-.617l-2.37-2.179c23.979-7.297 37.196-36.218 29.611-65.582z"/><path style="fill:#fff" d="M128.02 100.572c5.257 6.613 6.584 14.307 2.965 17.184-3.619 2.877-8.903-2.268-14.159-8.873-5.256-6.605-8.495-12.195-4.876-15.072 3.618-2.877 10.813.146 16.07 6.761zm-40.131 71.315c5.257 6.613 6.584 14.307 2.965 17.184-3.619 2.877-8.903-2.268-14.159-8.873-5.256-6.605-8.495-12.195-4.876-15.072 3.619-2.877 10.814.153 16.07 6.766v-.005z"/><ellipse transform="rotate(-81.784 167.25 144.015)" style="fill:#f6636b" cx="167.244" cy="144.01" rx="56.155" ry="46.767"/><path style="fill:#e05a62" d="M24.371 164.376c-6.169 12.167-7.991 27.611-3.968 43.176 7.759 30.029 34.323 49.133 59.333 42.671a40.733 40.733 0 0 0 20.605-12.945 48.769 48.769 0 0 1-4.545 6.937 41.074 41.074 0 0 1-22.069 14.718c-25.009 6.462-51.573-12.642-59.333-42.671-5.225-20.219-.591-40.236 10.629-53.129-.224.41-.441.824-.652 1.243m125.816-71.092a43.53 43.53 0 0 1 1.084-.894c-15.327 7.564-27.327 24.241-30.311 44.911-4.432 30.697 12.702 58.574 38.268 62.264a41.082 41.082 0 0 0 26.034-5.058 48.843 48.843 0 0 0 6.864-4.644 40.726 40.726 0 0 1-23.994 3.985c-25.566-3.69-42.698-31.567-38.268-62.264 2.297-15.911 9.938-29.455 20.324-38.3m41.945 96.574-.006.005.01-.005h-.004zm.004 0z"/><path style="fill:#355478" d="M222.214 173.013c-22.689-12.344-53.098-.267-67.92 26.977-14.5 26.652-8.701 57.932 12.802 70.836l-2.795 1.521a.356.356 0 0 0 .099.66l.099.02c.361.073.686.266.923.548l.086.099a1.62 1.62 0 0 0 1.012.564c.383.056.732.247.986.538.262.301.626.494 1.022.543l.133.017c.365.045.704.214.961.477l.07.071a.357.357 0 0 0 .608-.275l-.24-3.172c22.511 11.021 51.907-1.103 66.401-27.744 14.82-27.243 8.442-59.335-14.247-71.68z"/><path style="fill:#2e4969" d="M194.729 275.986a48.925 48.925 0 0 0 8.055-1.969 40.726 40.726 0 0 1-23.894-4.601c-22.69-12.345-29.066-44.44-14.243-71.682 7.683-14.121 19.555-24.166 32.368-28.848.441-.161.881-.315 1.324-.462-17 1.766-34.048 13.232-44.029 31.577-14.824 27.244-8.447 59.337 14.243 71.682a41.067 41.067 0 0 0 26.173 4.306"/><path style="fill:#f5b02e" d="M123.521 155.23c-25.804-.878-47.577 23.528-48.631 54.511-1.031 30.312 18.154 55.675 43.148 57.583l-1.806 2.597a.356.356 0 0 0 .385.546l.099-.026a1.624 1.624 0 0 1 1.071.077l.123.053c.366.159.778.176 1.156.051a1.628 1.628 0 0 1 1.126.038c.37.151.781.161 1.157.028l.126-.044a1.631 1.631 0 0 1 1.073 0l.099.033a.356.356 0 0 0 .421-.519l-1.631-2.721c25.038-.245 45.868-24.231 46.898-54.517 1.054-30.983-19.01-56.812-44.814-57.69z"/><path style="fill:#f59f2e" d="M145.063 259.543a48.972 48.972 0 0 0 6.321-5.369 40.729 40.729 0 0 1-23.422 6.587c-25.816-.874-45.893-26.711-44.844-57.709.544-16.053 6.646-30.333 15.987-40.258l.035-.03c.321-.341.647-.676.977-1.007-14.408 9.193-24.514 27.082-25.221 47.954-1.05 30.997 19.027 56.835 44.844 57.71a41.082 41.082 0 0 0 25.329-7.874"/><path style="fill:#fff" d="M166.249 33.641c3.182 7.826 2.29 15.577-1.992 17.323-4.283 1.746-7.906-4.679-11.088-12.505s-4.718-14.096-.44-15.835c4.278-1.739 10.337 3.191 13.52 11.017zM241.118 96.3c2.784 7.976 1.503 15.675-2.859 17.201-4.363 1.525-7.66-5.07-10.444-13.047s-4.004-14.313.362-15.837c4.365-1.525 10.157 3.707 12.941 11.683zm-36.299 25.806c3.065 7.872 2.059 15.614-2.25 17.291s-7.835-4.796-10.901-12.669-4.508-14.162-.197-15.84c4.312-1.677 10.283 3.346 13.348 11.218zm33.969 86.041c.71 8.418-2.449 15.557-7.056 15.946-4.607.388-6.156-6.819-6.866-15.237-.71-8.417-.313-14.859 4.294-15.248 4.608-.388 8.918 6.121 9.628 14.539zm-82.716-22.04c3.469 7.703 2.859 15.486-1.352 17.385s-8.073-4.384-11.542-12.087c-3.468-7.703-5.239-13.91-1.02-15.808 4.219-1.898 10.446 2.807 13.914 10.51z"/></svg>