<?xml version="1.0" encoding="UTF-8"?>
<svg id="Ebene_1" data-name="Ebene 1" xmlns="http://www.w3.org/2000/svg" viewBox="0 0 359.38143 359.45571">
  <defs>
    <style>
      .cls-1 {
        fill: #fff;
        stroke-width: 0px;
      }
    </style>
  </defs>
  <path class="cls-1" d="m347.40105,120.05336H11.98076v4.19856c0,59.65132-.00192,119.30266.00152,178.95399.00076,13.18075,7.15483,20.33082,20.34752,20.33187,53.77948.00427,107.55896.00178,161.33845.00185.99824,0,1.99688-.0183,2.99462.0048,4.34057.10046,7.03993,2.4806,6.95389,6.11656-.08294,3.50405-2.68963,5.80722-6.84908,5.84116-7.23666.05905-14.47417.01805-21.71131.01808-47.54057.00018-95.08113.00354-142.62169-.00155C12.41858,335.51652.0041,323.09752.00309,303.07294-.00085,224.82735-.00133,146.5818.00346,68.33622c.00121-19.82579,12.43659-32.31828,32.16299-32.33354,9.08767-.00704,18.17535-.0012,27.73159-.0012,0-3.56751-.00563-6.89102.00097-10.2145.02951-14.88204,10.03835-25.67323,23.85056-25.71913,13.98669-.04648,24.03681,10.76193,24.06464,25.88408.00592,3.21705.00087,6.43411.00087,9.84572h47.93641c0-4.1111-.09534-8.29853.01821-12.48029.31767-11.69957,8.93057-21.25684,20.67822-23.05961,11.17612-1.71506,22.418,5.28505,25.91869,16.34293.77768,2.45652,1.08678,5.11812,1.22736,7.70617.20198,3.71809.05155,7.45533.05155,11.43764h47.92228c0-3.7465-.0279-7.45064.00498-11.15424.1232-13.87255,10.50846-24.50982,23.91916-24.52242,13.43023-.01262,23.84053,10.59258,23.9845,24.46026.03852,3.70935.00583,7.41943.00583,11.47336,9.32213,0,18.27253-.00211,27.22294.00042,20.33851.00576,32.67146,12.29427,32.67347,32.57631.005,50.04224.00167,100.08447.00167,150.12671,0,.37438.00199.7488-.0005,1.12315-.03361,5.04478-2.17344,7.8395-5.99824,7.83497-3.8275-.00452-5.97477-2.78717-5.97612-7.84585-.00852-31.69758-.00436-63.39514-.00443-95.09271v-4.6711ZM155.74663,48.25506h-47.93598c0,4.00436.04242,7.73776-.0076,11.46992-.18241,13.60953-10.61529,24.15984-23.88399,24.18793-13.27372.02811-23.81798-10.52117-24.00855-24.05835-.054-3.8359-.00825-7.6732-.00825-11.86806-10.17934,0-20.00212-.08107-29.82297.02231-10.26325.10803-17.95286,7.79726-18.07108,18.05696-.10496,9.10915-.02584,18.22042-.02732,27.33076-.00077,4.70926-.00013,9.4185-.00013,14.26107h335.33063c0-14.67961.35253-29.14383-.12971-43.58015-.2984-8.93276-8.24986-15.78057-17.2599-16.06126-3.86467-.12039-7.73593-.03189-11.60419-.03337-6.19277-.00237-12.38555-.00063-18.8342-.00063,0,3.93188.01631,7.40516-.00283,10.87823-.07874,14.27116-10.23957,24.97161-23.7769,25.05249-13.71744.08195-24.0647-10.65979-24.13402-25.06557-.01716-3.56257-.00258-7.12529-.00258-10.67889h-47.93759c0,4.26302.09558,8.35149-.01764,12.43416-.36115,13.02519-11.0127,23.33817-23.98775,23.3103-12.956-.02783-23.54893-10.40139-23.86258-23.43929-.09576-3.98012-.01485-7.96449-.01485-12.21856Zm-59.91624-6.42758c0-5.86327.0773-11.72781-.02-17.58947-.1159-6.98227-5.36646-12.22619-12.02972-12.18788-6.68065.03841-11.83197,5.27172-11.87906,12.31767-.07836,11.72602-.0742,23.45326-.00216,35.17937.04323,7.0382,5.18683,12.31949,11.8343,12.38334,6.81091.06542,12.00189-5.25683,12.08631-12.51337.0682-5.86248.01382-11.72639.01034-17.58966Zm71.88214.1663c0,5.73852-.03841,11.47736.00964,17.21548.0613,7.3219,5.09661,12.67582,11.88241,12.72125,6.80372.04555,12.00507-5.2844,12.04636-12.54975.06596-11.6014.06706-23.20374-.00071-34.80513-.04236-7.25471-5.26594-12.584-12.07156-12.52549-6.81478.05858-11.79538,5.36877-11.85659,12.72818-.04774,5.73812-.00955,11.47695-.00955,17.21547Zm95.83406.14175c0,5.61377-.00002,11.22753.00016,16.8413,0,.2495-.00276.49912.00384.74847.18491,6.97155,5.37525,12.23695,12.03009,12.20522,6.65694-.03175,11.84698-5.28952,11.89709-12.31731.08358-11.72593.07933-23.45326.00238-35.17928-.04625-7.0484-5.18645-12.31931-11.83462-12.3838-6.83706-.06633-12.00464,5.22768-12.08479,12.49574-.06468,5.86255-.01309,11.72639-.01414,17.58966Z"/>
  <path class="cls-1" d="m359.37408,281.82933c-.25737,43.36429-35.36939,77.9369-78.83537,77.62427-42.84142-.30815-77.26546-35.77403-76.87868-79.20532.3778-42.4191,35.84222-76.83601,78.82875-76.50039,42.38193.33094,77.13728,35.62698,76.88531,78.08144Zm-11.97888-.20518c-.0961-36.32107-29.56932-65.93874-65.57635-65.89769-36.90295.04205-66.26939,29.51289-66.17811,66.41341.08904,35.99439,29.81108,65.37218,66.12277,65.35687,36.02784-.0152,65.72708-29.82342,65.63169-65.87258Z"/>
  <path class="cls-1" d="m71.79156,149.82162c3.86688-.00142,7.73446-.04893,11.60048.00885,7.2232.10793,12.29525,5.03536,12.41766,12.17098.10055,5.86166.1018,11.72785-.00075,17.58943-.12266,7.01175-5.08335,12.03069-12.06806,12.12904-7.98163.11243-15.9679.13016-23.94872-.00825-6.73353-.11677-11.7173-5.20262-11.84437-11.96903-.11241-5.98604-.11685-11.97769.00155-17.96349.13452-6.80009,5.08955-11.75102,11.86791-11.93623,3.98864-.10897,7.98268-.01989,11.9743-.02131Zm-11.58022,12.05606v17.64123h23.35833v-17.64123h-23.35833Z"/>
  <path class="cls-1" d="m143.6569,191.7452c-3.9916-.00078-7.98589.09285-11.9742-.02173-6.73663-.19353-11.72955-5.20525-11.85861-11.9662-.11428-5.98596-.116-11.9776.00054-17.96347.13245-6.80426,5.08012-11.83026,11.8537-11.93945,8.10579-.13069,16.21757-.14419,24.32258.01049,6.54095.12484,11.51275,5.17106,11.66838,11.74807.14455,6.10942.14737,12.22777-.00021,18.33704-.16265,6.73316-5.22271,11.61872-12.03771,11.77889-3.98942.09378-7.98285.01714-11.97448.01636Zm-11.67455-29.77303v17.55949h23.4759v-17.55949h-23.4759Z"/>
  <path class="cls-1" d="m215.68177,191.74829c-3.86687.00043-7.73463.0527-11.60044-.01085-7.23017-.11883-12.27676-5.05621-12.38847-12.20516-.09162-5.86194-.09768-11.72783.00251-17.5895.11977-7.00726,5.08409-12.0028,12.08367-12.09666,7.85707-.10536,15.71753-.09684,23.57489-.00353,7.16096.08502,12.11483,5.13274,12.21413,12.36918.07874,5.73755.08404,11.47808-.00217,17.21543-.1086,7.22568-5.06958,12.17182-12.28378,12.30774-3.8655.07285-7.73348.01291-11.60035.01335Zm-11.75385-29.79613v17.64116h23.46776v-17.64116h-23.46776Z"/>
  <path class="cls-1" d="m287.37028,191.74975c-3.74214.00034-7.48484.04175-11.22632-.00839-7.47548-.10016-12.48553-5.00948-12.5807-12.39629-.07389-5.7377-.0794-11.47802.00231-17.21551.10298-7.23192,5.05287-12.20816,12.27649-12.28909,7.73277-.08665,15.46783-.07899,23.20086-.00314,7.39016.07247,12.32111,5.08984,12.40611,12.56174.06382,5.61316.06807,11.22834-.00181,16.84134-.09281,7.45737-5.03099,12.38577-12.47648,12.49866-3.86598.05864-7.7336.01033-11.60046.01067Zm11.97516-29.65756h-23.62422v17.45156h23.62422v-17.45156Z"/>
  <path class="cls-1" d="m71.80053,203.73405c3.86688-.00039,7.73448-.04842,11.60047.00999,7.21988.10909,12.28772,5.0404,12.40899,12.17977.09956,5.8617.10223,11.72788-.00133,17.58944-.12384,7.01056-5.0868,12.02111-12.07673,12.12067-7.85689.11195-15.71754.10178-23.57481.00455-7.16419-.08862-12.12772-5.1491-12.22092-12.36539-.07411-5.73769-.07855-11.47798.00166-17.2155.10118-7.23704,5.04516-12.17908,12.26228-12.31064,3.86559-.07047,7.73352-.0125,11.6004-.01289Zm11.788,29.78665v-17.50912h-23.48862v17.50912h23.48862Z"/>
  <path class="cls-1" d="m143.76212,203.73599c3.99161.00005,7.9853-.08213,11.97437.01844,6.76512.17052,11.79338,5.12376,11.93842,11.88119.13115,6.10998.14985,12.22844-.01209,18.33703-.17367,6.5514-5.18589,11.53177-11.76699,11.64859-8.10535.14387-16.21728.14614-24.32249-.00201-6.55729-.11986-11.57715-5.14974-11.73641-11.68414-.14892-6.10925-.13849-12.22719-.00752-18.33721.14529-6.778,5.14242-11.67628,11.95831-11.84403,3.98919-.09819,7.98279-.01789,11.9744-.01785Zm11.79816,12.23596h-23.49215v17.51881h23.49215v-17.51881Z"/>
  <path class="cls-1" d="m71.81386,299.57353c-3.9916-.00206-7.98573.08853-11.97426-.02226-6.75768-.1877-11.75618-5.173-11.89017-11.93453-.11862-5.98578-.11584-11.97749-.00149-17.96343.13316-6.97013,5.15016-11.90132,12.19583-11.98398,7.8574-.09221,15.71779-.10105,23.57488.00338,6.96114.09253,11.96552,5.12661,12.08968,12.10813.10426,5.86154.10091,11.7277.00195,17.58942-.12132,7.18652-5.13149,12.07525-12.39599,12.19412-3.86584.06328-7.73357.01122-11.60044.00914Zm11.78861-12.15342v-17.50908h-23.51654v17.50908h23.51654Z"/>
  <path class="cls-1" d="m143.73634,299.56761c-3.99161.00425-7.98548.09031-11.97432-.01497-6.76827-.17861-11.7974-5.14586-11.93458-11.88923-.12432-6.11028-.14406-12.22826.0122-18.33717.16785-6.56194,5.16543-11.52734,11.75934-11.6407,8.10553-.13937,16.21718-.14088,24.32263.00101,6.55923.11483,11.57869,5.12072,11.74217,11.67388.15551,6.23361.17631,12.47871-.01318,18.71056-.19328,6.35586-5.18657,11.23369-11.56635,11.46447-4.11094.14872-8.23161.0279-12.34791.03215Zm-11.80328-12.2422h23.49191v-17.4934h-23.49191v17.4934Z"/>
  <path class="cls-1" d="m203.76319,215.71023v17.64975c.87433.35077,1.70851.6078,2.46972,1.00485,2.63813,1.37607,3.85005,3.62504,3.21671,6.49974-.66426,3.01516-2.76282,4.65041-5.89834,4.7747-5.90691.23416-11.58609-4.97849-11.80592-11.23207-.22785-6.48098-.23004-12.98266.00215-19.46336.22118-6.17355,5.21864-11.01731,11.45419-11.15488,7.9818-.17609,15.97099-.10886,23.95571-.0239,3.8431.04088,6.3664,2.49746,6.40837,5.88599.04353,3.51389-2.57455,5.99879-6.6473,6.03811-7.59239.07338-15.18602.02107-23.15528.02107Z"/>
  <path class="cls-1" d="m270.08614,303.66186c1.06228-1.51688,1.7049-2.78509,2.65867-3.74362,13.72041-13.78899,27.482-27.53701,41.23673-41.29182.7929-.79283,1.55104-1.63756,2.43028-2.32368,2.70846-2.11362,5.91041-1.99162,8.09429.37127,2.26001,2.4452,2.34313,5.12449.4147,7.815-.57558.80302-1.32225,1.48934-2.02611,2.1936-15.77796,15.78774-31.55757,31.57384-47.34492,47.35219-4.74903,4.74634-7.24297,4.76316-11.91461.09744-7.58757-7.57792-15.27956-15.05757-22.64838-22.84295-1.49245-1.57687-2.69674-4.47393-2.38179-6.5063.76072-4.90914,6.54288-6.00075,10.4581-2.15547,6.75485,6.63417,13.39336,13.38681,21.02304,21.03433Z"/>
</svg>