<svg xmlns="http://www.w3.org/2000/svg" viewBox="0 0 170 170" width="170" height="170"><path style="fill:#355478" d="M75.208 60.007c-.673-1.639-1.449-3.224-2.09-4.876-.225-.58-1.171-.328-.943.26.642 1.653 1.416 3.237 2.09 4.876.237.574 1.183.323.943-.26zM60.292 74.206c-1.595-.666-3.226-1.223-4.808-1.92-.57-.251-1.068.59-.494.844 1.661.732 3.369 1.321 5.043 2.019.58.242.832-.705.259-.943zm-.285 20.586c-1.639.673-3.224 1.449-4.876 2.09-.58.225-.328 1.171.26.943 1.653-.642 3.237-1.416 4.876-2.09.574-.237.323-1.182-.26-.943zm14.199 14.917c-.666 1.595-1.223 3.226-1.92 4.808-.251.57.59 1.068.844.494.732-1.661 1.321-3.369 2.019-5.043.242-.58-.705-.832-.943-.259zm20.586.284c.673 1.639 1.449 3.224 2.09 4.876.225.58 1.171.328.943-.26-.642-1.653-1.416-3.237-2.09-4.876-.237-.574-1.183-.323-.943.26zm14.915-14.198c1.595.666 3.226 1.223 4.809 1.92.57.251 1.068-.59.494-.844-1.661-.732-3.369-1.321-5.043-2.019-.58-.242-.833.704-.26.943zm.285-20.589c1.639-.673 3.224-1.449 4.876-2.09.58-.225.328-1.171-.26-.943-1.653.642-3.237 1.416-4.876 2.09-.574.237-.323 1.182.26.943zM95.794 60.292c.666-1.595 1.223-3.226 1.92-4.808.251-.57-.59-1.068-.844-.494-.732 1.661-1.321 3.369-2.019 5.043-.242.58.705.832.943.259zm-10.529 8.029c0-1.098-.064-2.191-.04-3.289a.244.244 0 0 0-.488 0c-.024 1.098.043 2.191.04 3.289a.244.244 0 0 0 .488 0zM73.394 73.02c-.775-.779-1.595-1.503-2.354-2.298-.218-.228-.563.118-.346.346.759.795 1.579 1.518 2.354 2.298a.245.245 0 0 0 .346-.346zm-5.072 11.716c-1.098 0-2.191.064-3.289.04a.244.244 0 0 0 0 .488c1.098.024 2.191-.043 3.289-.04a.244.244 0 0 0 0-.488zm4.698 11.871c-.779.775-1.503 1.595-2.298 2.354-.228.218.118.563.346.346.795-.759 1.518-1.579 2.298-2.354a.244.244 0 0 0 0-.346.244.244 0 0 0-.346 0zm11.715 5.072c0 1.098.064 2.191.04 3.289a.244.244 0 0 0 .488 0c.024-1.098-.043-2.191-.04-3.289a.244.244 0 0 0-.488 0zm11.871-4.698c.775.779 1.594 1.503 2.354 2.298.218.228.563-.118.346-.346-.759-.795-1.579-1.518-2.354-2.298a.244.244 0 0 0-.346 0 .246.246 0 0 0 0 .346zm5.072-11.716c1.098 0 2.191-.064 3.289-.04a.244.244 0 0 0 0-.488c-1.098-.024-2.191.043-3.289.04a.244.244 0 0 0 0 .488zm-4.698-11.87c.779-.775 1.503-1.595 2.298-2.354.228-.218-.118-.563-.346-.346-.795.759-1.518 1.579-2.298 2.354a.244.244 0 0 0 0 .346.244.244 0 0 0 .346 0zm-3.798-58.048c.464-4.605.628-9.214 1.182-13.81.195-1.614-2.295-2.197-2.494-.561-.555 4.599-.718 9.204-1.182 13.81-.163 1.609 2.328 2.198 2.494.561zM41.333 29.718c-2.859-3.501-5.931-6.788-8.72-10.341-1.006-1.282-3.19.046-2.177 1.339 2.927 3.731 6.136 7.188 9.138 10.859 1.039 1.271 2.786-.597 1.759-1.854v-.003zM15.347 76.815c-4.605-.464-9.214-.628-13.81-1.182-1.614-.195-2.197 2.296-.561 2.494 4.599.555 9.204.718 13.81 1.182 1.609.163 2.198-2.328.561-2.494zm14.371 51.852c-3.499 2.858-6.788 5.935-10.344 8.72-1.282 1.006.046 3.19 1.339 2.177 3.731-2.927 7.188-6.136 10.859-9.138 1.271-1.038-.597-2.786-1.854-1.759zm47.1 25.986c-.464 4.605-.628 9.214-1.182 13.81-.195 1.614 2.295 2.197 2.494.561.555-4.599.718-9.204 1.182-13.81.163-1.609-2.328-2.198-2.494-.561zm51.849-14.371c2.858 3.499 5.935 6.788 8.72 10.344 1.006 1.282 3.19-.046 2.177-1.339-2.927-3.731-6.136-7.188-9.138-10.859-1.039-1.272-2.786.596-1.759 1.854zm25.986-47.099c4.605.464 9.214.628 13.81 1.182 1.614.195 2.197-2.296.561-2.494-4.599-.555-9.204-.718-13.81-1.182-1.609-.163-2.198 2.328-.561 2.494zm-14.372-51.849c3.499-2.858 6.788-5.935 10.344-8.72 1.282-1.006-.046-3.19-1.339-2.177-3.731 2.927-7.188 6.136-10.859 9.138-1.271 1.038.597 2.786 1.854 1.759zm-34.15 5.549c1.358-2.529 2.546-5.13 3.954-7.631.402-.717-.723-1.319-1.127-.604-1.408 2.503-2.596 5.102-3.954 7.631a.639.639 0 0 0 1.127.604zm-33.142-3.777c-.827-2.748-1.827-5.427-2.599-8.192a.639.639 0 0 0-1.222.372c.773 2.765 1.772 5.443 2.599 8.192a.639.639 0 0 0 1.222-.372zM46.883 63.869c-2.529-1.358-5.13-2.546-7.631-3.954-.717-.402-1.318.723-.604 1.127 2.503 1.408 5.102 2.596 7.631 3.954a.639.639 0 0 0 .604-1.127zM43.106 97.01c-2.748.827-5.427 1.827-8.192 2.599a.639.639 0 0 0 .372 1.222c2.765-.773 5.443-1.772 8.192-2.599a.639.639 0 0 0-.372-1.222zm20.763 26.107c-1.358 2.529-2.546 5.13-3.954 7.631-.402.717.723 1.319 1.127.604 1.408-2.503 2.596-5.102 3.954-7.631a.639.639 0 0 0-1.127-.604zm33.141 3.778c.827 2.748 1.827 5.427 2.599 8.192a.639.639 0 0 0 1.222-.372c-.773-2.765-1.772-5.443-2.599-8.192a.639.639 0 0 0-1.222.372zm26.106-20.763c2.529 1.358 5.13 2.546 7.631 3.954.717.402 1.319-.723.604-1.127-2.503-1.408-5.102-2.596-7.631-3.954a.639.639 0 0 0-.604 1.127zm3.778-33.139c2.748-.827 5.427-1.827 8.192-2.599a.639.639 0 0 0-.372-1.222c-2.765.773-5.443 1.772-8.192 2.599a.639.639 0 0 0 .372 1.222z"/><path style="fill:#39c2c2" d="M71.248 63.411c-.98-1.476-2.05-2.879-3.001-4.375-.337-.529-1.183-.039-.844.494.952 1.496 2.021 2.899 3.001 4.375.347.522 1.194.033.844-.494zM60.437 79.799c-1.736-.35-3.485-.586-5.216-.971-.613-.137-.875.805-.26.943 1.73.385 3.478.621 5.216.971.615.123.877-.818.26-.943zm3.386 18.953c-1.476.98-2.879 2.05-4.375 3.001-.529.337-.039 1.183.494.844 1.496-.952 2.899-2.021 4.375-3.001.521-.347.032-1.194-.494-.844zm15.912 10.811c-.35 1.736-.586 3.486-.971 5.216-.137.613.805.875.943.26.384-1.73.621-3.478.971-5.216.123-.615-.819-.878-.943-.26zm19.017-2.901c.98 1.476 2.05 2.879 3.001 4.375.337.529 1.183.039.844-.494-.952-1.496-2.021-2.899-3.001-4.375-.347-.522-1.194-.033-.844.494zm10.408-15.997c1.736.35 3.485.586 5.216.971.613.137.875-.805.26-.943-1.73-.384-3.478-.621-5.216-.971-.615-.123-.878.819-.26.943zm-3.122-19.08c1.476-.98 2.879-2.05 4.375-3.001.529-.337.039-1.183-.494-.844-1.496.952-2.899 2.021-4.375 3.001-.522.347-.032 1.194.494.844zM90.321 60.117c.35-1.736.586-3.486.972-5.216.137-.613-.805-.875-.943-.26-.385 1.73-.621 3.478-.972 5.216-.123.615.82.878.943.26zm-7.979 9.499c-.211-1.078-.491-2.136-.681-3.219-.054-.31-.526-.178-.472.13.19 1.082.47 2.141.681 3.219.061.309.533.178.472-.13zm-10.175 6.787c-.911-.613-1.857-1.163-2.757-1.794-.259-.181-.503.242-.246.422.9.631 1.846 1.181 2.757 1.794.261.176.502-.247.246-.422zm-2.551 11.294c-1.078.211-2.136.491-3.219.681-.31.054-.178.526.13.472 1.082-.19 2.141-.47 3.219-.681.308-.06.177-.532-.13-.472zm6.786 10.136c-.613.911-1.163 1.857-1.794 2.757-.181.259.242.503.422.246.631-.9 1.181-1.846 1.794-2.757.177-.261-.247-.503-.422-.246zm11.22 2.551c.211 1.078.491 2.136.681 3.219.054.309.526.178.472-.13-.19-1.082-.47-2.141-.681-3.219-.06-.309-.532-.178-.472.13zm10.21-6.35c.911.613 1.857 1.163 2.757 1.794.259.181.503-.242.246-.422-.899-.631-1.846-1.181-2.757-1.794-.261-.177-.502.247-.246.422zm2.551-11.691c1.078-.211 2.136-.491 3.219-.681.31-.054.178-.526-.13-.472-1.082.19-2.141.47-3.219.681-.308.06-.177.532.13.472zm-6.786-9.974c.613-.911 1.163-1.857 1.794-2.757.181-.259-.242-.503-.422-.246-.631.899-1.181 1.846-1.794 2.757-.177.261.247.503.422.246zm-13.728-54.05c-.444-4.608-1.182-9.154-1.535-13.775-.125-1.635-2.679-1.547-2.553.101.352 4.617 1.091 9.168 1.535 13.775.157 1.629 2.716 1.544 2.553-.101zM34.785 42.788c-3.572-2.944-7.312-5.64-10.826-8.651-1.245-1.068-3.009.782-1.759 1.854 3.514 3.018 7.255 5.711 10.826 8.651 1.263 1.042 3.028-.805 1.759-1.854zM19.267 90.64c-4.608.444-9.154 1.182-13.775 1.534-1.635.125-1.547 2.679.101 2.553 4.617-.352 9.168-1.091 13.775-1.535 1.629-.157 1.543-2.716-.101-2.552zm23.374 44.498c-2.944 3.572-5.64 7.312-8.651 10.826-1.068 1.245.782 3.009 1.854 1.759 3.018-3.514 5.711-7.255 8.651-10.826 1.042-1.264-.805-3.029-1.854-1.759zm47.404 16.711c.444 4.608 1.182 9.154 1.535 13.775.125 1.635 2.679 1.547 2.553-.101-.352-4.617-1.091-9.168-1.535-13.775-.157-1.629-2.716-1.544-2.553.101zm43.67-24.065c3.572 2.944 7.312 5.64 10.826 8.651 1.245 1.068 3.009-.782 1.759-1.854-3.514-3.018-7.255-5.711-10.826-8.651-1.263-1.042-3.028.805-1.759 1.854zm16.278-47.812c4.608-.444 9.154-1.182 13.775-1.535 1.635-.125 1.547-2.679-.101-2.553-4.617.352-9.168 1.091-13.775 1.535-1.629.157-1.544 2.716.101 2.553zm-22.106-45.784c2.944-3.572 5.64-7.312 8.651-10.826 1.068-1.245-.782-3.009-1.854-1.759-3.018 3.514-5.711 7.255-8.651 10.826-1.042 1.263.805 3.028 1.854 1.759zM97.803 46.271c.839-2.745 1.497-5.527 2.39-8.256.256-.78-.993-1.057-1.246-.281-.893 2.729-1.551 5.51-2.39 8.256-.239.786 1.006 1.064 1.246.281zm-31.804 3.124c-1.348-2.534-2.85-4.966-4.147-7.527-.372-.735-1.458-.059-1.088.67 1.298 2.561 2.8 4.993 4.147 7.527.387.728 1.473.053 1.088-.67zM46.222 72.289c-2.745-.839-5.526-1.497-8.256-2.39-.78-.256-1.057.993-.281 1.246 2.729.893 5.51 1.551 8.256 2.39.786.239 1.065-1.006.281-1.246zm3.173 31.712c-2.534 1.348-4.966 2.85-7.527 4.147-.735.372-.059 1.458.669 1.088 2.561-1.298 4.993-2.8 7.527-4.147.728-.387.053-1.472-.669-1.088zm22.721 19.69c-.838 2.745-1.497 5.527-2.39 8.256-.256.78.992 1.057 1.246.281.893-2.729 1.551-5.51 2.39-8.256.24-.786-1.005-1.064-1.246-.281zm31.348-2.079c1.348 2.534 2.85 4.966 4.147 7.527.372.735 1.458.059 1.088-.67-1.298-2.561-2.8-4.993-4.147-7.527-.387-.728-1.473-.053-1.088.669v.001zm20.263-23.808c2.745.838 5.526 1.497 8.256 2.39.78.256 1.057-.993.281-1.246-2.729-.893-5.51-1.551-8.256-2.39-.786-.24-1.065 1.005-.281 1.246zm-3.37-31.341c2.534-1.348 4.966-2.85 7.527-4.147.735-.372.059-1.458-.669-1.088-2.561 1.298-4.993 2.8-7.527 4.147-.728.387-.053 1.473.67 1.088h-.001z"/><path style="fill:#f5b02e" d="M85.521 58.105c0-1.771-.101-3.533-.065-5.304a.49.49 0 0 0-.978 0c-.04 1.771.069 3.533.065 5.304a.49.49 0 0 0 .978 0zm-19.172 7.507c-1.249-1.256-2.572-2.424-3.796-3.705-.436-.456-1.127.236-.691.691 1.224 1.282 2.548 2.448 3.796 3.705a.489.489 0 0 0 .691-.691zm-8.247 18.866c-1.771 0-3.533.101-5.304.065a.49.49 0 0 0 0 .978c1.771.04 3.533-.069 5.304-.065a.49.49 0 0 0 0-.978zm7.51 19.173c-1.256 1.249-2.424 2.572-3.705 3.796-.456.436.236 1.127.691.691 1.282-1.224 2.448-2.548 3.705-3.796a.489.489 0 0 0-.691-.691zm18.866 8.247c0 1.771.101 3.533.065 5.304a.49.49 0 0 0 .978 0c.04-1.771-.069-3.533-.065-5.304a.49.49 0 0 0-.978 0zm19.173-7.509c1.249 1.256 2.572 2.424 3.796 3.705.436.456 1.127-.236.691-.691-1.224-1.282-2.548-2.448-3.796-3.705a.489.489 0 0 0-.691.691zm8.246-18.867c1.771 0 3.533-.101 5.304-.065a.49.49 0 0 0 0-.978c-1.771-.04-3.533.069-5.304.065a.49.49 0 0 0 0 .978zm-7.509-19.168c1.256-1.249 2.424-2.572 3.705-3.796.456-.436-.236-1.127-.691-.691-1.282 1.224-2.448 2.548-3.705 3.796a.489.489 0 0 0 .691.691zm-25.516 3.164c-.417-1.016-.898-2-1.296-3.024-.113-.29-.585-.164-.472.13.402 1.025.878 2.012 1.296 3.024.118.287.592.161.472-.13zm-9.208 8.845c-.994-.414-2.012-.762-2.996-1.197-.286-.126-.534.296-.246.422 1.025.452 2.079.815 3.112 1.246.29.122.417-.351.13-.471zm-.146 12.766c-1.016.417-2 .898-3.024 1.296-.29.113-.164.585.13.472 1.025-.402 2.012-.878 3.024-1.296.286-.118.161-.592-.13-.472zm8.842 9.208c-.414.994-.762 2.012-1.197 2.996-.126.286.296.534.422.246.452-1.025.815-2.079 1.246-3.112.121-.29-.351-.417-.471-.13zm12.768.145c.417 1.016.898 2 1.296 3.024.113.29.585.164.472-.13-.402-1.025-.878-2.012-1.296-3.024-.118-.287-.592-.161-.472.13zm9.208-8.844c.995.414 2.012.762 2.996 1.197.286.126.534-.296.246-.422-1.025-.452-2.079-.815-3.112-1.246-.29-.122-.417.351-.13.471zm.145-12.766c1.016-.417 2-.898 3.024-1.296.29-.113.164-.585-.13-.472-1.025.402-2.012.878-3.024 1.296-.286.118-.161.592.13.472zm-8.843-9.208c.414-.995.762-2.012 1.197-2.996.126-.286-.296-.534-.422-.246-.452 1.025-.815 2.079-1.246 3.112-.121.29.351.417.471.13zm27.663-46.019c2.191-4.077 4.105-8.272 6.377-12.306.805-1.433-1.447-2.637-2.254-1.207-2.272 4.035-4.186 8.228-6.377 12.306a1.28 1.28 0 0 0 2.254 1.207zm-53.433-6.279c-1.334-4.433-2.946-8.751-4.193-13.212a1.28 1.28 0 0 0-2.445.743c1.246 4.459 2.859 8.779 4.193 13.212a1.28 1.28 0 0 0 2.445-.743zM23.645 50.703c-4.078-2.191-8.272-4.105-12.306-6.379-1.433-.805-2.636 1.447-1.207 2.254 4.035 2.272 8.229 4.186 12.306 6.378a1.278 1.278 0 1 0 1.207-2.254v.001zm-6.282 53.43c-4.433 1.334-8.751 2.946-13.211 4.193a1.28 1.28 0 0 0 .743 2.445c4.459-1.246 8.779-2.859 13.212-4.193a1.28 1.28 0 0 0-.744-2.445zm33.339 42.223c-2.191 4.077-4.105 8.272-6.377 12.306-.805 1.433 1.447 2.637 2.254 1.207 2.272-4.035 4.186-8.229 6.377-12.306a1.278 1.278 0 1 0-2.254-1.207zm53.43 6.28c1.334 4.433 2.946 8.751 4.193 13.211a1.28 1.28 0 0 0 2.445-.743c-1.246-4.459-2.859-8.779-4.193-13.212a1.28 1.28 0 0 0-2.445.743v.001zm42.223-33.339c4.077 2.191 8.272 4.105 12.306 6.378 1.433.805 2.637-1.447 1.207-2.254-4.035-2.272-8.228-4.186-12.306-6.378a1.278 1.278 0 1 0-1.207 2.254zm6.281-53.429c4.433-1.334 8.751-2.946 13.212-4.193a1.28 1.28 0 0 0-.743-2.445c-4.459 1.246-8.779 2.859-13.212 4.193a1.28 1.28 0 0 0 .743 2.445zM89.928 41.776c.287-2.856.389-5.714.733-8.563.101-.805-1.148-1.098-1.246-.281-.344 2.852-.446 5.707-.733 8.563-.082.805 1.163 1.1 1.246.281zm-32.11 9.056c-1.781-2.18-3.694-4.225-5.432-6.445-.503-.641-1.595.023-1.088.669 1.811 2.303 3.789 4.437 5.641 6.702.52.637 1.393-.301.879-.926zM41.776 80.077c-2.856-.287-5.714-.389-8.563-.733-.805-.101-1.098 1.148-.281 1.246 2.852.344 5.707.446 8.563.733.805.081 1.1-1.164.281-1.246zm9.056 32.105c-2.18 1.781-4.225 3.694-6.445 5.432-.641.503.023 1.595.669 1.088 2.303-1.811 4.437-3.789 6.702-5.641.636-.52-.302-1.393-.926-.88v.001zm29.244 16.042c-.287 2.856-.389 5.714-.733 8.563-.101.805 1.148 1.098 1.246.281.344-2.852.446-5.707.733-8.563.082-.805-1.163-1.1-1.246-.281zm32.106-9.059c1.781 2.18 3.694 4.225 5.432 6.445.503.641 1.595-.023 1.088-.669-1.811-2.303-3.789-4.437-5.641-6.702-.52-.637-1.393.301-.879.926zm16.041-29.241c2.856.287 5.714.389 8.563.733.805.101 1.098-1.148.281-1.246-2.852-.344-5.707-.446-8.563-.733-.805-.081-1.1 1.164-.281 1.246zm-9.056-32.106c2.18-1.781 4.225-3.694 6.445-5.432.641-.503-.023-1.595-.669-1.088-2.303 1.811-4.437 3.789-6.702 5.641-.636.519.301 1.393.926.879z"/><path style="fill:#f6636b" d="M80.805 60.164c-.341-1.738-.792-3.444-1.098-5.19-.109-.619-1.051-.356-.943.26.302 1.745.757 3.451 1.098 5.19.122.617 1.064.356.943-.26zm-16.453 10.89c-1.471-.989-2.996-1.876-4.446-2.893-.516-.362-1.006.485-.494.844 1.452 1.018 2.976 1.904 4.446 2.893.524.352 1.014-.495.494-.844zm-4.188 18.205c-1.738.341-3.444.792-5.189 1.098-.619.109-.356 1.051.26.943 1.745-.302 3.451-.757 5.189-1.098.616-.122.356-1.064-.26-.943zm10.89 16.389c-.989 1.471-1.875 2.996-2.893 4.446-.362.516.485 1.006.844.494 1.018-1.452 1.904-2.977 2.893-4.446.352-.524-.495-1.014-.844-.494zm18.084 4.188c.341 1.738.792 3.444 1.098 5.19.109.619 1.051.356.943-.26-.302-1.745-.757-3.451-1.098-5.19-.121-.617-1.063-.356-.943.26zm16.509-10.186c1.471.989 2.996 1.876 4.446 2.893.516.362 1.006-.485.494-.844-1.451-1.018-2.976-1.904-4.446-2.893-.524-.352-1.014.495-.494.844zm4.188-18.844c1.738-.341 3.444-.792 5.189-1.098.619-.109.356-1.051-.26-.943-1.745.302-3.451.757-5.189 1.098-.616.121-.356 1.064.26.943zM98.946 64.677c.989-1.471 1.876-2.996 2.893-4.446.362-.516-.485-1.006-.844-.494-1.018 1.452-1.904 2.977-2.893 4.446-.352.524.495 1.014.844.494zm-22.524 6.967c-.604-.915-1.27-1.786-1.861-2.716-.168-.265-.591-.02-.422.246.589.927 1.253 1.798 1.861 2.716.172.261.596.016.422-.246zm-6.669 10.188c-1.077-.217-2.161-.364-3.234-.604-.302-.068-.438.402-.13.472 1.073.238 2.157.385 3.234.604.307.062.439-.41.13-.472zm2.145 11.746c-.915.604-1.785 1.27-2.716 1.861-.265.168-.02.591.246.422.927-.589 1.798-1.253 2.716-1.861.261-.173.017-.596-.246-.422zm9.894 6.668c-.217 1.077-.364 2.161-.604 3.234-.068.302.402.438.472.13.238-1.073.385-2.157.604-3.234.062-.307-.409-.439-.472-.13zm11.785-1.844c.604.915 1.27 1.785 1.861 2.716.168.265.591.02.422-.246-.589-.927-1.253-1.798-1.861-2.716-.172-.261-.596-.016-.422.246zm6.419-9.946c1.077.217 2.161.364 3.234.604.302.068.438-.402.13-.472-1.073-.238-2.157-.385-3.234-.604-.307-.062-.439.409-.13.472zm-1.98-11.823c.915-.604 1.785-1.27 2.716-1.861.265-.168.02-.591-.246-.422-.927.589-1.798 1.253-2.716 1.861-.261.173-.017.596.246.422zm-9.773-7.079c.217-1.077.364-2.161.604-3.234.068-.302-.402-.438-.472-.13-.238 1.073-.385 2.157-.604 3.234-.062.307.41.438.472.13zm17.646-46.958c1.354-4.426 2.414-8.913 3.854-13.314.511-1.56-1.985-2.112-2.494-.561-1.441 4.401-2.5 8.887-3.854 13.314-.481 1.571 2.012 2.129 2.494.561zM54.567 27.45c-2.173-4.087-4.597-8.009-6.689-12.139-.744-1.47-2.917-.119-2.177 1.339 2.092 4.13 4.517 8.047 6.689 12.139.774 1.455 2.946.106 2.177-1.339zm-32.05 36.807c-4.426-1.354-8.913-2.414-13.314-3.854-1.559-.511-2.112 1.985-.561 2.494 4.401 1.441 8.887 2.5 13.314 3.854 1.571.481 2.128-2.012.561-2.494zm4.933 51.176c-4.087 2.173-8.009 4.597-12.139 6.689-1.47.744-.119 2.917 1.339 2.177 4.13-2.092 8.047-4.517 12.139-6.689 1.455-.774.106-2.946-1.339-2.177zm36.531 31.903c-1.354 4.426-2.414 8.913-3.854 13.314-.511 1.56 1.985 2.112 2.494.561 1.441-4.401 2.5-8.887 3.854-13.314.481-1.571-2.012-2.128-2.494-.561zm50.585-3.161c2.173 4.087 4.597 8.009 6.689 12.139.744 1.47 2.917.119 2.177-1.339-2.092-4.13-4.517-8.047-6.689-12.139-.774-1.456-2.946-.107-2.177 1.339zm32.839-38.289c4.426 1.354 8.913 2.414 13.314 3.854 1.56.511 2.112-1.985.561-2.494-4.401-1.441-8.887-2.5-13.314-3.854-1.571-.48-2.128 2.013-.561 2.494zm-5.255-50.569c4.087-2.173 8.009-4.597 12.139-6.689 1.47-.744.119-2.917-1.339-2.177-4.13 2.092-8.047 4.517-12.139 6.689-1.456.774-.107 2.945 1.339 2.177zM81.662 43.659c-.276-2.857-.732-5.678-.952-8.541-.062-.818-1.34-.774-1.276.049.219 2.863.676 5.684.952 8.541.078.815 1.356.773 1.276-.049zM53.757 58.937c-2.213-1.825-4.533-3.498-6.712-5.367-.623-.534-1.509.391-.879.926 2.18 1.869 4.497 3.542 6.712 5.367.632.522 1.515-.402.879-.926zm-9.511 29.714c-2.857.276-5.678.732-8.541.952-.818.062-.774 1.34.049 1.277 2.863-.219 5.684-.676 8.541-.952.816-.079.773-1.356-.049-1.277zm14.599 27.543c-1.825 2.213-3.498 4.534-5.367 6.712-.534.623.391 1.509.926.88 1.869-2.18 3.542-4.497 5.367-6.713.522-.63-.402-1.514-.926-.879zm29.436 10.251c.276 2.857.732 5.678.952 8.541.062.818 1.34.774 1.277-.049-.219-2.863-.676-5.684-.952-8.541-.079-.815-1.356-.772-1.277.049zm27.032-15.026c2.213 1.825 4.534 3.498 6.712 5.367.623.534 1.509-.391.88-.926-2.18-1.869-4.497-3.542-6.712-5.367-.632-.521-1.515.402-.879.926h-.001zm9.981-29.69c2.857-.276 5.678-.732 8.541-.952.818-.062.774-1.34-.049-1.277-2.863.219-5.684.676-8.541.952-.815.079-.773 1.357.049 1.277zm-13.812-28.343c1.825-2.213 3.498-4.534 5.367-6.712.534-.623-.391-1.509-.926-.879-1.869 2.18-3.542 4.497-5.367 6.712-.522.632.402 1.515.926.879z"/></svg>