<svg xmlns="http://www.w3.org/2000/svg" viewBox="0 0 170 170" width="170" height="170"><path style="fill:#355478" d="m70.702 30.559-2.387-7.76c-.454-1.475-2.807-.85-2.349.639l2.387 7.76c.454 1.475 2.806.85 2.349-.639zm39.11 14.134a548.095 548.095 0 0 1 20.238-33.584c.851-1.304-1.257-2.511-2.107-1.213a549.256 549.256 0 0 0-20.235 33.584c-.753 1.357 1.35 2.571 2.107 1.213h-.003zm-64.923 76.521-4.854 4.767a1.19 1.19 0 0 0 .031 1.7c.472.45 1.22.45 1.693 0l4.854-4.767a1.19 1.19 0 0 0-.031-1.7 1.23 1.23 0 0 0-1.693 0zm-7.723-37.415c-11.991-.414-23.997-.554-35.995-.59a1.21 1.21 0 0 0-1.17 1.249 1.211 1.211 0 0 0 1.17 1.154c11.997.035 24.003.177 35.995.59 1.569.054 1.565-2.349 0-2.403zm70.542 42.721a548.095 548.095 0 0 0 20.238 33.584c.846 1.296 2.955.094 2.107-1.213a548.095 548.095 0 0 1-20.238-33.584c-.753-1.357-2.858-.145-2.107 1.213zm34.478-27.419c2.526.219 5.034.61 7.506 1.171 1.526.344 2.178-1.973.647-2.317a60.48 60.48 0 0 0-8.153-1.257c-1.561-.135-1.552 2.267 0 2.403zM70.211 69.684c-3.843-3.294-7.149-6.423-11.383-9.761-.614-.484-1.223.558-.615 1.039 4.069 3.211 7.374 6.345 11.135 9.573.59.505 1.455-.341.863-.851zm27.662-5.564 1.842-3.023a.598.598 0 0 0-.239-.818.614.614 0 0 0-.814.212l-1.842 3.023a.598.598 0 0 0 .239.818.616.616 0 0 0 .814-.212zm7.988 16.308a162.087 162.087 0 0 1 14.78-2.576c.766-.094.777-1.3 0-1.201a164.21 164.21 0 0 0-15.104 2.619c-.766.17-.439 1.329.324 1.158zm-26.56 24.419c-1.484 5.061-2.811 10.167-4.2 15.253a.611.611 0 0 0 1.175.32c1.391-5.086 2.716-10.192 4.201-15.253a.601.601 0 0 0-.46-.72.609.609 0 0 0-.716.4zM59.677 83.869a26.512 26.512 0 0 0-3.592-.33c-.336 0-.609.269-.609.601s.273.601.609.601c1.095.02 2.187.114 3.268.283.766.122 1.097-1.039.324-1.159v.004zm37.345 21.163 1.532 2.517c.17.287.543.383.834.216a.597.597 0 0 0 .219-.823l-1.532-2.517c-.17-.287-.543-.383-.834-.216s-.389.536-.219.823zm3.399-54.201 2.017-5.014c.383-.953-1.105-1.587-1.491-.627l-2.017 5.014c-.383.953 1.105 1.587 1.491.627zm14.417 23.333a373.776 373.776 0 0 1 24.633-9.207c.99-.331.4-1.82-.585-1.49a373.564 373.564 0 0 0-24.633 9.207c-.958.398-.378 1.888.585 1.49zM48.92 87.458l-4.528.498a.802.802 0 0 0-.668.92.81.81 0 0 0 .851.668l4.528-.498a.802.802 0 0 0 .668-.92.808.808 0 0 0-.851-.668zm11.093-21.769c-6.066-5.114-12.258-10.092-18.483-15.011a.819.819 0 0 0-1.133.178.794.794 0 0 0 .124 1.073c6.225 4.92 12.416 9.898 18.483 15.011.793.669 1.802-.583 1.009-1.251zm19.369 50.193a360.038 360.038 0 0 0-3.573 25.742c-.104 1.02 1.499 1.255 1.604.229a360.53 360.53 0 0 1 3.573-25.742.804.804 0 0 0-.726-.876.808.808 0 0 0-.878.647zm29.453-.182a36.281 36.281 0 0 1 3.414 3.676c.65.802 1.962-.137 1.31-.945a39.305 39.305 0 0 0-3.715-3.985c-.756-.708-1.76.546-1.009 1.251v.003zm-25.66-44.575a105.78 105.78 0 0 0-2.328-9.789c-.143-.496-.897-.202-.756.289a103.498 103.498 0 0 1 2.278 9.591c.096.503.9.417.805-.094v.003zm17.293 8.27 2.227-.819a.4.4 0 0 0 .232-.518.408.408 0 0 0-.525-.229l-2.227.819a.4.4 0 0 0-.232.518.409.409 0 0 0 .525.229zm-2.694 11.747a106.791 106.791 0 0 1 8.772 4.698c.44.263.95-.359.505-.625a109.433 109.433 0 0 0-8.959-4.808c-.468-.224-.787.511-.318.735zm-24.075 1.857c-2.898 2.027-5.731 4.142-8.591 6.221a.396.396 0 0 0-.088.559.41.41 0 0 0 .567.087c2.86-2.078 5.693-4.194 8.591-6.221.181-.13.22-.381.088-.559s-.386-.218-.567-.087zm-1.4-18.934a17.405 17.405 0 0 0-1.73-1.639c-.4-.33-.905.296-.505.625.561.458 1.089.955 1.58 1.485.349.378 1.007-.094.655-.471zm10.544 26.27-.26 1.936a.402.402 0 0 0 .355.444c.214.025.41-.12.446-.33l.26-1.936a.405.405 0 0 0-.801-.114z"/><path style="fill:#f5b02e" d="M62.292 43.481A547.793 547.793 0 0 0 42.054 9.897c-.846-1.296-2.955-.094-2.107 1.213a547.58 547.58 0 0 1 20.237 33.584c.753 1.357 2.858.145 2.108-1.213zM27.815 70.9a55.626 55.626 0 0 1-7.506-1.171c-1.526-.344-2.178 1.973-.647 2.317a60.48 60.48 0 0 0 8.153 1.257c1.562.134 1.551-2.267 0-2.403zm97.296-22.113 4.855-4.767a1.19 1.19 0 0 0-.031-1.7 1.23 1.23 0 0 0-1.693 0l-4.855 4.767a1.19 1.19 0 0 0 .031 1.7c.473.449 1.22.449 1.693 0zm-64.923 76.52a548.582 548.582 0 0 1-20.237 33.584c-.851 1.304 1.257 2.511 2.107 1.213a548.095 548.095 0 0 0 20.238-33.584c.752-1.358-1.352-2.572-2.108-1.213zM99.3 139.441l2.387 7.76c.454 1.475 2.807.85 2.349-.639l-2.387-7.76c-.454-1.475-2.807-.85-2.349.639zm33.534-53.239c11.991-.414 23.997-.554 35.995-.59a1.21 1.21 0 0 0 1.17-1.249 1.211 1.211 0 0 0-1.17-1.154c-11.997.035-24.003.177-35.995.59-1.564.054-1.571 2.456 0 2.403zM90.699 65.153c1.125-5.151 2.411-10.266 3.63-15.396.179-.756-.995-1.073-1.175-.319-1.22 5.129-2.506 10.244-3.63 15.396-.164.755 1.011 1.076 1.175.319zm-17.721-.184-1.532-2.517a.614.614 0 0 0-.839-.196.597.597 0 0 0-.215.803l1.532 2.517c.17.287.543.383.834.216a.596.596 0 0 0 .22-.823zm37.345 21.167c1.188.192 2.388.301 3.592.33.336 0 .609-.269.609-.601s-.273-.601-.609-.601a23.995 23.995 0 0 1-3.268-.283c-.766-.122-1.097 1.039-.324 1.159v-.004zm-38.196 19.741-1.843 3.022a.598.598 0 0 0 .239.818.614.614 0 0 0 .814-.212l1.842-3.023a.598.598 0 0 0-.239-.818.614.614 0 0 0-.813.213zM64.14 89.573a162.087 162.087 0 0 1-14.78 2.576c-.766.094-.777 1.3 0 1.201a164.152 164.152 0 0 0 15.104-2.619c.766-.17.44-1.329-.324-1.158zm36.18 10.065c3.843 3.294 7.459 6.921 11.599 9.842.639.451 1.245-.591.615-1.039-4.057-2.863-7.586-6.423-11.352-9.655-.589-.505-1.455.341-.862.85v.002zm-9.7-45.522a360.038 360.038 0 0 0 3.573-25.742c.104-1.02-1.499-1.255-1.604-.229a360.45 360.45 0 0 1-3.573 25.742.804.804 0 0 0 .726.876.81.81 0 0 0 .878-.647zm-29.453.189a36.26 36.26 0 0 1-3.414-3.684c-.65-.803-1.962.137-1.31.945a39.305 39.305 0 0 0 3.715 3.985c.756.708 1.76-.546 1.009-1.251v.005zm59.912 28.242 4.529-.498a.802.802 0 0 0 .7-.894.807.807 0 0 0-.883-.693l-4.528.498a.802.802 0 0 0-.7.894.807.807 0 0 0 .882.693zM55.163 95.836a373.776 373.776 0 0 1-24.633 9.207c-.99.331-.4 1.82.585 1.49a373.564 373.564 0 0 0 24.633-9.207c.958-.398.378-1.888-.585-1.49zm14.416 23.333-2.017 5.014c-.383.953 1.105 1.587 1.491.627l2.017-5.014c.382-.953-1.105-1.587-1.491-.627zm39.995-14.194c6.416 4.684 12.531 9.706 18.789 14.589.363.26.87.179 1.133-.178a.793.793 0 0 0-.124-1.073c-6.257-4.883-12.376-9.905-18.789-14.589-.836-.61-1.849.638-1.009 1.251zM96.3 77.002c2.748-2.221 5.566-4.357 8.354-6.527.409-.318-.067-.965-.479-.646-2.789 2.172-5.606 4.307-8.354 6.527-.402.325.074.972.479.646zm-9.144-7.336.26-1.936a.402.402 0 0 0-.355-.444.403.403 0 0 0-.446.33l-.26 1.936a.406.406 0 0 0 .801.114zM97.7 95.935a17.405 17.405 0 0 0 1.73 1.639c.4.33.905-.296.505-.625a15.628 15.628 0 0 1-1.58-1.485c-.347-.378-1.006.094-.655.471zm-28.167-5.329-2.227.819a.4.4 0 0 0-.232.518c.08.206.316.308.525.229l2.227-.819c.209-.08.312-.312.232-.518s-.317-.309-.525-.229zm2.693-11.749a106.791 106.791 0 0 1-8.772-4.698c-.44-.263-.95.359-.505.625a109.433 109.433 0 0 0 8.959 4.808c.469.224.787-.511.318-.735zm14.598 20.019a105.78 105.78 0 0 0 2.328 9.789c.143.496.897.202.756-.289a103.498 103.498 0 0 1-2.278-9.591c-.096-.503-.9-.417-.805.094v-.003z"/><path style="fill:#39c2c2" d="M86.218 37.52c-.438-12.116-.471-24.246-.676-36.365A1.213 1.213 0 0 0 84.276.001a1.212 1.212 0 0 0-1.17 1.154c.205 12.121.238 24.251.676 36.365.055 1.542 2.489 1.549 2.436 0zm-39.606 9.568-4.854-4.767a1.231 1.231 0 0 0-1.724.03 1.19 1.19 0 0 0 0 1.67l4.854 4.767a1.231 1.231 0 0 0 1.724-.03 1.192 1.192 0 0 0 0-1.67zm95.574 26.214a60.614 60.614 0 0 0 8.153-1.257c1.532-.344.881-2.662-.647-2.317-2.472.561-4.98.952-7.506 1.171-1.548.135-1.563 2.539 0 2.403zm-73.835 65.5-2.387 7.76a1.201 1.201 0 0 0 .903 1.448 1.223 1.223 0 0 0 1.446-.809l2.387-7.76a1.201 1.201 0 0 0-.903-1.448 1.219 1.219 0 0 0-1.446.809zm-27.217-31.861a354.703 354.703 0 0 1-31.572 13.963c-1.445.556-.816 2.881.647 2.317a360.575 360.575 0 0 0 32.153-14.206c1.398-.702.167-2.776-1.23-2.078l.002.004zm86.503 2.075a361.731 361.731 0 0 0 32.153 14.206c1.461.567 2.094-1.761.647-2.317a355.154 355.154 0 0 1-31.572-13.963c-1.394-.7-2.629 1.372-1.23 2.078l.002-.004zM84.916 60.575l-.17-3.52c-.037-.77-1.255-.775-1.218 0l.17 3.52c.038.77 1.256.774 1.218 0zm14.932 10.1a247.456 247.456 0 0 1 12.144-12.031c.575-.53-.287-1.378-.862-.85a249.136 249.136 0 0 0-12.144 12.031c-.534.566.326 1.416.862.85zM64.163 95.987l-2.559 1.5c-.291.167-.389.536-.219.823s.543.383.834.216l2.559-1.5a.596.596 0 0 0 .199-.827.613.613 0 0 0-.814-.212zm.844-16.576c-5.009-1.426-10.055-2.746-15.103-4.019a.61.61 0 0 0-.73.453.602.602 0 0 0 .406.706c5.052 1.273 10.094 2.592 15.103 4.019a.61.61 0 0 0 .73-.453.6.6 0 0 0-.406-.706zm25.012 25.477a243.898 243.898 0 0 0 4.911 16.271c.248.729 1.425.417 1.175-.319a246.285 246.285 0 0 1-4.911-16.271.612.612 0 0 0-.769-.386c-.3.094-.476.4-.406.705zm17.526-7.883c1.036.354 2.046.779 3.023 1.271.697.35 1.314-.686.615-1.039a26.278 26.278 0 0 0-3.313-1.392c-.742-.254-1.061.905-.325 1.16zm-1.971-36.213c4.86-6.483 9.937-12.809 14.921-19.2.635-.814-.631-1.813-1.268-.996-4.98 6.391-10.06 12.716-14.92 19.2-.619.826.646 1.824 1.267.996zM80.946 49.59l-.524-4.464a.808.808 0 0 0-.907-.69.801.801 0 0 0-.703.871l.524 4.464a.808.808 0 0 0 .907.69.8.8 0 0 0 .703-.871zm38.722 52.686a40.025 40.025 0 0 0 4.771 2.677c.939.445 1.576-1.025.636-1.471a36.618 36.618 0 0 1-4.397-2.456c-.862-.566-1.88.682-1.01 1.25zm-65.924 3.918-4.501 3.063c-.862.586.096 1.876.958 1.292l4.501-3.063c.861-.586-.096-1.876-.958-1.292zm-.783-26.602a236.646 236.646 0 0 1-22.292-5.632c-.985-.301-1.635 1.166-.636 1.471a241.963 241.963 0 0 0 22.696 5.744c1.023.205 1.252-1.377.232-1.583zm44.136 35.323a234.21 234.21 0 0 0 10.765 20.528c.524.89 1.829-.06 1.31-.945a230.043 230.043 0 0 1-10.564-20.164c-.432-.934-1.944-.36-1.511.577v.004zm-1.883-42.658 1.39-1.901c.304-.416-.328-.916-.634-.498l-1.39 1.901c-.304.416.328.916.634.498zm3.528 11.355c3.769-.561 7.572-.996 11.371-1.3.521-.042.428-.836-.096-.794-3.8.304-7.602.739-11.371 1.3-.515.076-.425.871.096.794zm-29.197-1.407-1.961-.264a.403.403 0 0 0-.449.35.4.4 0 0 0 .333.44l1.961.264a.403.403 0 0 0 .449-.35.4.4 0 0 0-.333-.44zm7.399-8.281a342.792 342.792 0 0 0-6.171-8.261c-.315-.41-.97.06-.655.472a334.365 334.365 0 0 1 6.171 8.261.41.41 0 0 0 .567.087c.18-.13.22-.381.088-.559zm2.315 23.475a163.106 163.106 0 0 0-4.278 10.473c-.177.481.567.799.745.314a162.193 162.193 0 0 1 4.278-10.473.397.397 0 0 0-.222-.52.406.406 0 0 0-.523.206zm12.432 3.058c.391.607.737 1.241 1.039 1.897.215.468.972.18.756-.289a16.901 16.901 0 0 0-1.14-2.078c-.28-.435-.933.038-.655.472v-.002z"/><path style="fill:#f6636b" d="M42.362 60.984a361.731 361.731 0 0 0-32.153-14.206c-1.461-.567-2.094 1.761-.647 2.317a354.872 354.872 0 0 1 31.572 13.964c1.394.7 2.629-1.372 1.23-2.078l-.002.003zm59.286-29.785 2.387-7.76a1.201 1.201 0 0 0-.903-1.448 1.223 1.223 0 0 0-1.446.809L99.3 30.559a1.201 1.201 0 0 0 .903 1.448 1.22 1.22 0 0 0 1.445-.808zm27.219 31.86a355 355 0 0 1 31.572-13.964c1.445-.556.816-2.881-.647-2.317a360.575 360.575 0 0 0-32.153 14.206c-1.398.702-.167 2.776 1.23 2.078l-.002-.003zM83.786 132.48c-.438 12.116-.471 24.246-.676 36.365.027.664.594 1.18 1.266 1.154a1.212 1.212 0 0 0 1.17-1.154c.205-12.121.238-24.251.676-36.365.057-1.546-2.38-1.544-2.436 0zM27.815 96.699a60.614 60.614 0 0 0-8.153 1.257c-1.532.344-.881 2.662.647 2.317a55.626 55.626 0 0 1 7.506-1.171c1.549-.135 1.564-2.539 0-2.403zm95.574 26.214 4.855 4.767a1.231 1.231 0 0 0 1.724-.03 1.19 1.19 0 0 0 0-1.67l-4.855-4.767a1.231 1.231 0 0 0-1.724.03 1.192 1.192 0 0 0 0 1.67zM79.981 65.112a246.268 246.268 0 0 0-4.909-16.271c-.248-.729-1.425-.417-1.175.319a246.285 246.285 0 0 1 4.911 16.271.612.612 0 0 0 .769.386.6.6 0 0 0 .406-.706l-.002.001zm-17.525 7.883a23.913 23.913 0 0 1-3.023-1.271c-.697-.35-1.314.686-.615 1.039a26.278 26.278 0 0 0 3.313 1.392c.741.254 1.06-.905.325-1.16zm43.38 1.019 2.559-1.5a.596.596 0 0 0 .199-.827.616.616 0 0 0-.814-.212l-2.559 1.5a.596.596 0 0 0-.199.827c.17.274.529.367.814.212zM70.153 99.326a247.456 247.456 0 0 1-12.144 12.031c-.575.53.287 1.378.862.85a247.77 247.77 0 0 0 12.143-12.031c.533-.566-.326-1.417-.861-.85zm14.93 10.099.17 3.52c.037.77 1.255.775 1.218 0l-.17-3.52c-.036-.77-1.256-.774-1.218 0zm19.91-18.835c5.097 1.085 10.17 2.282 15.227 3.522a.61.61 0 0 0 .73-.453.602.602 0 0 0-.406-.706c-5.06-1.24-10.134-2.436-15.227-3.522-.766-.162-1.091.996-.324 1.159zM72.9 55.085a234.21 234.21 0 0 0-10.765-20.528c-.524-.89-1.829.06-1.31.945a230.043 230.043 0 0 1 10.564 20.164c.432.934 1.944.36 1.511-.577v-.004zm43.357 8.721 4.501-3.063c.862-.586-.096-1.876-.958-1.292l-4.501 3.062c-.861.586.096 1.876.958 1.293zm.782 27.699a236.646 236.646 0 0 1 22.292 5.632c.985.301 1.635-1.166.636-1.471a241.963 241.963 0 0 0-22.696-5.744c-1.022-.205-1.251 1.377-.232 1.583zm-52.613 17.704c-5.316 6.125-10.423 12.423-15.624 18.647-.664.794.604 1.79 1.268.996 5.197-6.224 10.308-12.522 15.624-18.647.68-.783-.59-1.776-1.268-.996zM50.332 67.725a40.025 40.025 0 0 0-4.771-2.677c-.939-.445-1.576 1.025-.636 1.471a36.708 36.708 0 0 1 4.398 2.456c.86.566 1.879-.682 1.009-1.25zm38.721 52.685.524 4.464c.073.436.49.731.933.658a.802.802 0 0 0 .677-.839l-.524-4.464a.808.808 0 0 0-.907-.69.8.8 0 0 0-.703.871zm1.687-47.808a163.106 163.106 0 0 0 4.278-10.473c.177-.481-.567-.799-.745-.314a162.193 162.193 0 0 1-4.278 10.473.397.397 0 0 0 .222.52.408.408 0 0 0 .523-.206zm-12.429-3.059a15.368 15.368 0 0 1-1.039-1.897c-.215-.467-.972-.18-.756.289.33.718.712 1.412 1.14 2.078.28.435.933-.038.655-.472v.002zm22.145 18.252 1.961.264a.403.403 0 0 0 .449-.35.4.4 0 0 0-.333-.44l-1.961-.264a.403.403 0 0 0-.449.35.398.398 0 0 0 .333.44zm-29.197-1.406c-3.769.561-7.572.996-11.371 1.3-.521.042-.428.836.096.794 3.799-.304 7.602-.739 11.371-1.3.515-.076.425-.871-.096-.794zm3.526 11.355-1.389 1.899c-.304.416.328.916.634.498l1.39-1.901c.304-.416-.328-.916-.634-.498l-.001.002zm18.271-1.667a330.16 330.16 0 0 1 6.446 8.054c.318.408.973-.062.655-.472a334.094 334.094 0 0 0-6.446-8.055c-.329-.397-.985.072-.655.473z"/></svg>