<svg xmlns="http://www.w3.org/2000/svg" viewBox="0 0 170 170" width="170" height="170"><path style="fill:#39c2c2" d="M43.988 51.305c-8.723-7.21-16.512-13.608-25.701-20.146-1.185-.844-2.529 1.023-1.335 1.877 9.193 6.538 16.979 12.936 25.701 20.146 1.129.932 2.466-.943 1.335-1.877zM21.535 95.753a87.918 87.918 0 0 1-11.494 3.013c-1.412.271-1.12 2.59.293 2.319a92.439 92.439 0 0 0 12.08-3.179c1.368-.46.489-2.61-.874-2.148l-.005-.005zm54.414 44.431c-1.093 11.577-2.008 17.078-3.889 28.544-.244 1.488 1.974 1.776 2.217.297 1.882-11.466 2.795-16.967 3.889-28.544.064-.642-.38-1.218-.994-1.286-.594-.066-1.134.369-1.223.989zm34.41-115.875 4.739-12.216c.216-.605-.077-1.279-.656-1.505-.557-.218-1.179.059-1.417.63l-4.739 12.216c-.216.605.077 1.279.656 1.505.558.218 1.18-.059 1.417-.63zm22.515 40.373c7.769-3.123 13.378-5.735 21.045-9.121.55-.292.769-.997.489-1.573-.253-.522-.836-.767-1.364-.575-7.667 3.386-13.276 5.998-21.045 9.121-1.343.54-.466 2.692.875 2.148zm-9.395 73.575 9.847 11.481c.956 1.114 2.715-.33 1.751-1.454l-9.847-11.481c-.956-1.114-2.715.33-1.751 1.454zM80.701 58.845a262.195 262.195 0 0 0-2.519-17.122c-.134-.737-1.242-.585-1.108.155A258.173 258.173 0 0 1 79.593 59c.041.32.322.545.628.502a.579.579 0 0 0 .48-.657zm-22.798 7.347c-1.748-.941-3.435-2-5.051-3.17-.586-.426-1.261.511-.667.938a46.909 46.909 0 0 0 5.304 3.316c.64.345 1.053-.742.418-1.085l-.004.001zm4.19 35.604c-4.272 3.66-10.052 8.113-14.557 11.454-.586.435.108 1.351.695.92 4.505-3.339 10.286-7.791 14.557-11.454.555-.475-.137-1.394-.695-.92zm48.823-27.105 5.533-2.447a.598.598 0 0 0 .266-.779.55.55 0 0 0-.702-.297l-5.533 2.447a.598.598 0 0 0-.266.779c.124.276.43.405.702.297zm-3.257 20.874c3.776 1.758 11.269 5.023 15.098 6.647a.55.55 0 0 0 .727-.324.595.595 0 0 0-.309-.761c-3.828-1.629-11.322-4.894-15.098-6.647-.658-.306-1.074.78-.418 1.085zM79.435 118.58l-.391 7.651c-.038.749 1.07.9 1.109.148l.391-7.651c.038-.748-1.069-.9-1.109-.148zM65.024 50.774c-4.312-7.444-8.172-14.061-12.983-21.161-.62-.92-2.029.028-1.405.95 4.811 7.101 8.67 13.719 12.983 21.161.558.963 1.964.014 1.405-.95zM38.177 75.787a65.149 65.149 0 0 1-8.811-1.035c-1.057-.197-1.432 1.509-.372 1.707a68.46 68.46 0 0 0 9.257 1.077c1.075.051.993-1.697-.074-1.749zm27.04 46.048c-3.66 7.817-5.675 11.423-9.86 18.946-.543.977.94 1.786 1.48.818 4.185-7.523 6.2-11.129 9.86-18.946.474-1.011-1.006-1.827-1.48-.818zm53.085-71.813 6.375-7.267a.904.904 0 0 0-.082-1.235.809.809 0 0 0-1.152.054l-6.375 7.267a.904.904 0 0 0 .082 1.235.81.81 0 0 0 1.152-.054zm5.695 34.466c6.227-.062 10.812-.357 17.033-.632.461-.031.811-.446.783-.929-.028-.47-.407-.833-.858-.82-6.222.274-10.806.57-17.033.632-1.075.011-1.001 1.759.075 1.749zm-24.977 49.01 4.034 10.746c.391 1.042 1.986.511 1.591-.54l-4.034-10.746c-.392-1.042-1.987-.511-1.591.54zM88.877 66.113c.977-4.2 1.815-8.432 2.514-12.694.091-.554-.725-.751-.815-.194a193.024 193.024 0 0 1-2.514 12.694.436.436 0 0 0 .334.511.417.417 0 0 0 .481-.317zM71.059 65.02a35.313 35.313 0 0 1-2.749-3.606c-.307-.46-1.011.011-.702.476a37.17 37.17 0 0 0 2.887 3.777c.362.416.924-.233.564-.647zm-5.96 26.109c-3.908 1.397-9.074 2.935-13.068 4.043-.52.144-.262.977.258.832 3.993-1.108 9.159-2.646 13.068-4.042a.444.444 0 0 0 .256-.558.415.415 0 0 0-.514-.275zm41.001-5.634 4.494-.205a.43.43 0 0 0 .391-.464.426.426 0 0 0-.428-.41l-4.494.205a.43.43 0 0 0-.391.464.425.425 0 0 0 .428.41zm-7.829 14.127c2.208 2.266 6.644 6.607 8.922 8.795.174.159.439.14.59-.042a.452.452 0 0 0-.026-.604c-2.276-2.19-6.714-6.532-8.922-8.795-.385-.395-.948.251-.564.646zm-25.211 8.022-2.189 5.255c-.214.511.525.92.74.409l2.189-5.256c.214-.511-.525-.92-.74-.409v.001z"/><path style="fill:#f5b02e" d="M31.705 78.778c-7.805-.566-22.948-.755-30.768-.512-1.438.046-1.127 2.364.293 2.319 7.628-.242 22.576-.043 30.19.511 1.431.102 1.72-2.216.283-2.32l.002.002zm72.261 57.576c3.067 8.368 10.017 24.469 13.237 32.773.279.576.953.806 1.503.512.498-.265.733-.875.549-1.428-3.219-8.304-10.17-24.404-13.237-32.773-.516-1.405-2.572-.489-2.052.916zM36.987 121.57a94.891 94.891 0 0 0-10.567 6.891c-1.168.877.222 2.71 1.389 1.833a90.431 90.431 0 0 1 10.048-6.571c1.256-.707.391-2.863-.874-2.148l.004-.005zm40.991-97.616L76.913 8.565c-.105-1.504-2.318-1.185-2.216.307l1.065 15.389c.104 1.504 2.318 1.185 2.216-.307zm41.699 16.204c4.904-6.12 16.042-17.885 21.501-23.465 1.017-1.04-.359-2.886-1.389-1.833-5.597 5.727-16.877 17.626-21.905 23.901-.924 1.153.869 2.548 1.793 1.397zm19.939 68.184 11.692 4.909c.578.226 1.222-.081 1.438-.686.208-.583-.057-1.234-.602-1.483l-11.692-4.909c-.578-.226-1.222.081-1.438.686-.207.583.057 1.235.602 1.483zM67.161 63.966c-2.557-3.068-8.037-8.764-10.862-11.556-.522-.511-1.185.426-.667.938 2.756 2.724 8.161 8.358 10.654 11.351.471.564 1.35-.159.879-.727l-.004-.006zm6.058 46.78c-1.727 4.067-4.521 11.256-6.175 15.356-.115.3.023.64.31.761s.612-.025.727-.323c1.654-4.1 4.446-11.289 6.175-15.356.292-.689-.745-1.125-1.037-.438zm-18.552-29.81a45.6 45.6 0 0 0-6.015-1.462c-.711-.122-.85 1.039-.142 1.161 1.939.331 3.856.795 5.739 1.387.684.214 1.108-.869.418-1.086zm47.147-19.212 4.787-5.795c.47-.57-.427-1.266-.896-.698l-4.787 5.795c-.47.569.427 1.266.896.698zm9.193 21.025c3.777-.341 11.067-.547 14.857-.511.712.007.86-1.153.142-1.161-3.887-.041-11.275.159-15.144.511-.718.064-.567 1.227.148 1.16l-.003.001zm-15.87 31.267 2.46 6.02a.55.55 0 0 0 .744.278.595.595 0 0 0 .283-.735l-2.46-6.02a.55.55 0 0 0-.744-.278.596.596 0 0 0-.283.735zm-45.59-47.345c-5.331-2.534-15.899-6.813-21.443-8.78-1.02-.362-1.381 1.349-.372 1.707 5.408 1.919 15.837 6.151 21.037 8.623.977.464 1.759-1.083.782-1.549h-.004zm36.269 60.15c.059 6.706.908 19.896 1.088 26.6.029.483.426.849.887.819.449-.03.796-.426.784-.898-.182-6.703-1.03-19.893-1.088-26.6-.01-1.124-1.68-1.047-1.671.079zM42.555 98.116a68.909 68.909 0 0 0-9.128 1.943c-1.038.296-.522 1.96.516 1.665a65.442 65.442 0 0 1 8.687-1.855c1.057-.151.993-1.901-.075-1.749v-.004zm53.135-57.21 3.1-11.08c.303-1.083-1.33-1.465-1.631-.39l-3.1 11.08c-.303 1.084 1.33 1.466 1.631.39zm25.182 22.779c4.967-2.948 15.716-8.145 20.938-10.563.977-.451.47-2.122-.516-1.665-5.354 2.479-16.237 7.735-21.33 10.758-.935.555-.027 2.025.908 1.47zm-3.061 53.261 6.971 6.641a.81.81 0 0 0 1.18-.086.903.903 0 0 0-.052-1.206l-6.971-6.641a.81.81 0 0 0-1.18.086.905.905 0 0 0 .052 1.206zM78.11 65.994c-1.027-2.848-3.444-8.345-4.727-11.077-.236-.504-.938-.026-.702.476 1.252 2.665 3.633 8.094 4.634 10.872.189.523.985.257.795-.271zm-7.448 34.457c-2.228 2.378-5.982 6.653-8.167 9.075-.37.409.247 1 .617.59 2.185-2.422 5.939-6.697 8.167-9.075.377-.403-.24-.992-.617-.59zM65.109 74.47a35.505 35.505 0 0 0-3.851-2.672c-.468-.28-.856.495-.391.774a33.874 33.874 0 0 1 3.676 2.543c.426.338.994-.307.564-.646l.002.001zm37.851-.558 4.806-2.752c.472-.27.017-1.004-.454-.735l-4.806 2.752c-.472.27-.017 1.004.454.735zm1.19 17.256c2.736.796 7.895 2.647 10.543 3.713.497.205.891-.573.391-.774-2.714-1.093-7.944-2.976-10.747-3.792-.52-.151-.703.703-.187.853zm-18.94 17.575.22 4.894a.426.426 0 0 0 .444.409.43.43 0 0 0 .392-.448l-.22-4.894a.426.426 0 0 0-.444-.409.432.432 0 0 0-.392.448z"/><path style="fill:#355478" d="M65.273 34.25c-3.629-8.122-8.85-21.935-12.328-30.123-.279-.576-.953-.805-1.503-.512-.498.265-.733.875-.549 1.428 3.478 8.188 8.695 22.004 12.328 30.123.608 1.359 2.667.451 2.052-.916zM29.914 62.132l-11.692-4.909c-.578-.226-1.222.081-1.438.686-.208.583.057 1.234.602 1.483l11.692 4.909c.578.226 1.222-.081 1.438-.686.208-.584-.056-1.235-.602-1.483zm61.025 83.952 1.065 15.389c.105 1.504 2.318 1.185 2.216-.307l-1.07-15.389c-.105-1.504-2.318-1.185-2.216.307h.005zm-38.658-17.421c-4.904 6.12-14.46 16.472-19.922 22.053-1.018 1.04.359 2.887 1.389 1.833 5.597-5.727 15.298-16.213 20.322-22.489.924-1.154-.87-2.548-1.793-1.397h.004zm80.262-79.759a95.227 95.227 0 0 0 10.563-6.892c1.172-.877-.222-2.71-1.389-1.833a90.574 90.574 0 0 1-10.048 6.571c-1.256.707-.391 2.863.874 2.148v.006zM135.972 91c7.805.566 25.27.65 33.09.402 1.438-.046 1.127-2.364-.293-2.319-7.628.242-24.898.148-32.511-.404-1.431-.102-1.72 2.216-.283 2.32l-.003.001zM93.894 60.675c1.452-4.184 3.998-11.514 5.525-15.667a.596.596 0 0 0-.309-.762.552.552 0 0 0-.728.324c-1.527 4.153-4.073 11.484-5.525 15.667-.245.707.791 1.147 1.037.438zm-21.769-3.209-2.46-6.02a.55.55 0 0 0-.744-.278.595.595 0 0 0-.283.735l2.46 6.02a.55.55 0 0 0 .744.278.596.596 0 0 0 .283-.735zm-6.747 51.914-4.787 5.795c-.47.57.427 1.266.896.698l4.787-5.795c.47-.569-.427-1.265-.896-.698zm-7.715-20.334c-3.777.341-13.509.979-17.301.939-.712-.007-.86 1.153-.142 1.161 3.887.041 13.717-.59 17.586-.939.718-.064.567-1.227-.149-1.16l.006-.001zm54.929 1.501a45.6 45.6 0 0 0 6.015 1.462c.711.122.85-1.039.142-1.161a43.595 43.595 0 0 1-5.739-1.387c-.684-.216-1.108.867-.418 1.084v.002zM99.68 106.595c2.557 3.068 9.327 10.263 12.153 13.057.522.511 1.185-.426.667-.938-2.756-2.724-9.451-9.857-11.945-12.845-.471-.564-1.35.159-.879.727l.004-.001zm-15.471-61.95c-.515-6.685-.722-17.8-1.114-24.493-.029-.483-.426-.849-.887-.819-.449.03-.796.426-.784.898.391 6.693.599 17.808 1.114 24.493.086 1.125 1.759 1.047 1.671-.079zm-31.758 9.864-6.97-6.641a.81.81 0 0 0-1.18.086.903.903 0 0 0 .052 1.206l6.971 6.641a.81.81 0 0 0 1.18-.086.902.902 0 0 0-.053-1.206zm21.8 75.567-3.1 11.08c-.303 1.083 1.33 1.465 1.631.39l3.1-11.08c.303-1.083-1.33-1.465-1.631-.39zm-22.746-22.798c-4.967 2.948-14.256 7.587-19.479 10.005-.977.451-.47 2.122.516 1.665 5.354-2.479 14.777-7.178 19.87-10.2.935-.555.027-2.025-.907-1.47zm76.202-33.939a68.909 68.909 0 0 0 9.128-1.943c1.038-.296.522-1.96-.516-1.665a65.442 65.442 0 0 1-8.687 1.855c-1.057.151-.993 1.901.075 1.749v.004zm-8.117 30.451c5.331 2.534 17.554 7.375 23.098 9.343 1.02.362 1.382-1.349.372-1.707-5.408-1.919-17.489-6.714-22.691-9.185-.977-.464-1.759 1.083-.782 1.549h.003zM97.67 71.008c2.063-2.535 5.68-6.977 7.789-9.471.357-.422-.26-1.013-.617-.59-2.108 2.493-5.725 6.936-7.789 9.471-.349.428.267 1.022.617.59zm-14.459-8.21-.22-4.894a.426.426 0 0 0-.444-.409.43.43 0 0 0-.392.448l.22 4.894a.426.426 0 0 0 .444.409.431.431 0 0 0 .392-.448zM65.505 97.345l-4.806 2.752c-.472.27-.017 1.004.454.735l4.806-2.752c.472-.27.017-1.004-.454-.735zm-.327-16.369c-2.736-.796-9.715-3.013-12.363-4.079-.497-.205-.891.573-.391.774 2.715 1.093 9.764 3.342 12.566 4.158.52.151.702-.703.186-.854l.002.001zm38.133 16.095a35.505 35.505 0 0 0 3.851 2.672c.468.28.856-.495.391-.774a33.874 33.874 0 0 1-3.676-2.543c-.426-.339-.994.307-.564.646l-.002-.001zm-13.85 8.029c1.027 2.849 3.974 9.749 5.256 12.476.236.504.938.026.702-.476-1.252-2.665-4.162-9.498-5.164-12.272-.189-.523-.985-.257-.794.272z"/><path style="fill:#f6636b" d="m46.79 33.817-9.457-11.835c-.92-1.151-2.677.296-1.751 1.454l9.457 11.835c.92 1.152 2.677-.295 1.751-1.454zM36.445 105.28c-7.54 3.688-16.751 7.583-24.401 11.011-.55.292-.77.997-.489 1.573.253.522.836.767 1.364.575 7.65-3.429 16.861-7.323 24.401-11.011 1.299-.636.431-2.792-.875-2.148zm21.343 43.514-4.739 12.221c-.216.605.077 1.279.656 1.505.557.218 1.179-.059 1.417-.63l4.739-12.216c.216-.605-.077-1.279-.656-1.505-.557-.218-1.179.059-1.417.63v-.005zM91.747 31.338c1.093-11.577 2.052-18.601 3.932-30.066.244-1.488-1.974-1.776-2.217-.297-1.882 11.466-2.839 18.489-3.932 30.066-.064.642.38 1.219.994 1.286.596.066 1.135-.37 1.223-.989zm34.172 86.7c8.723 7.21 14.424 11.899 23.616 18.437 1.185.844 2.529-1.023 1.335-1.877-9.193-6.538-14.894-11.229-23.616-18.437-1.129-.932-2.466.943-1.335 1.877zm22.324-42.856a87.918 87.918 0 0 1 11.494-3.013c1.412-.271 1.12-2.59-.293-2.319a92.31 92.31 0 0 0-12.071 3.179c-1.368.46-.489 2.61.874 2.148l-.004.005zM87.55 53.739l.65-7.632c.064-.75-1.044-.899-1.109-.148l-.65 7.632c-.064.75 1.044.899 1.109.148zM59.942 75.01c-3.885-1.477-11.73-4.806-15.566-6.418a.551.551 0 0 0-.727.323.595.595 0 0 0 .309.761c3.837 1.608 11.681 4.941 15.566 6.418.675.258 1.095-.826.418-1.084zm-7.108 23.129-5.764 2.548a.598.598 0 0 0-.266.779.55.55 0 0 0 .702.297l5.764-2.548a.598.598 0 0 0 .266-.779.55.55 0 0 0-.702-.297zm51.338-28.759c4.271-3.66 8.66-7.161 13.165-10.499.586-.435-.108-1.351-.695-.92a239.645 239.645 0 0 0-13.165 10.499c-.554.475.138 1.394.695.92zm-17.098 42.999a262.195 262.195 0 0 0 2.519 17.122c.134.737 1.242.585 1.108-.155a258.173 258.173 0 0 1-2.519-17.122.564.564 0 0 0-.628-.502.58.58 0 0 0-.48.657zm22.218-6.835c1.748.941 3.435 2 5.051 3.17.586.426 1.261-.511.667-.938a47.002 47.002 0 0 0-5.3-3.316c-.64-.345-1.053.742-.418 1.085v-.001zm-37.93-66.263L67.69 28.394c-.358-1.059-1.954-.526-1.591.54l3.673 10.887c.357 1.06 1.954.526 1.59-.54zM46.247 86.546c-6.208.522-13.638.729-19.858 1.038-.461.031-.811.446-.783.929.028.47.407.833.858.82 6.22-.307 13.651-.517 19.858-1.038 1.075-.091 1.001-1.841-.075-1.749zm4.086 36.351-6.375 7.267a.904.904 0 0 0 .082 1.235.809.809 0 0 0 1.152-.054l6.375-7.267a.904.904 0 0 0-.082-1.235.81.81 0 0 0-1.152.054zm53.164-73.044c3.66-7.817 6.087-12.476 10.271-20.002.543-.977-.94-1.786-1.48-.818-4.185 7.523-6.611 12.185-10.271 20.002-.474 1.012 1.006 1.828 1.48.818zm2.287 70.139c4.313 7.443 7.138 12.292 11.949 19.392.62.92 2.029-.028 1.405-.95-4.811-7.101-7.635-11.95-11.949-19.392-.557-.963-1.963-.014-1.405.95zm26.361-23.932c2.955.144 5.898.49 8.811 1.035 1.057.197 1.432-1.509.372-1.707a68.46 68.46 0 0 0-9.257-1.077c-1.075-.052-.993 1.697.074 1.749zM94.956 64.406l2.362-5.173c.232-.511-.508-.92-.74-.409l-2.362 5.173c-.231.511.509.92.74.409zm-24.668 7.358c-2.354-2.099-7.021-6.585-9.308-8.762a.405.405 0 0 0-.59.042.452.452 0 0 0 .026.604c2.288 2.177 6.954 6.662 9.309 8.762.409.366.977-.278.563-.646zM59.521 86.03l-4.677.205a.43.43 0 0 0-.391.464.426.426 0 0 0 .428.41l4.677-.205a.43.43 0 0 0 .391-.464.426.426 0 0 0-.428-.41zm43.179-6.105a170.849 170.849 0 0 1 11.854-3.756c.52-.144.262-.977-.258-.832a171.535 171.535 0 0 0-11.854 3.756.444.444 0 0 0-.256.558c.074.22.301.341.514.274zm-22.734 25.458c-.977 4.2-1.815 8.432-2.514 12.694-.091.554.725.751.816.194a193.024 193.024 0 0 1 2.514-12.694.44.44 0 0 0-.315-.524.418.418 0 0 0-.501.33zm17.287 1.297a35.313 35.313 0 0 1 2.749 3.606c.307.46 1.011-.011.702-.476a37.17 37.17 0 0 0-2.887-3.777c-.362-.415-.923.233-.564.647z"/></svg>