<?xml version="1.0" encoding="iso-8859-1"?>
<!-- Generator: Adobe Illustrator 28.0.0, SVG Export Plug-In . SVG Version: 6.00 Build 0)  -->
<svg version="1.1" id="Ebene_1" xmlns="http://www.w3.org/2000/svg" xmlns:xlink="http://www.w3.org/1999/xlink" x="0px" y="0px"
	 viewBox="0 0 384.558 384.878" style="enable-background:new 0 0 384.558 384.878;" xml:space="preserve">
<g>
	<g>
		<g>
			<path style="fill:#39C1C2;" d="M374.159,298.608c-2.93-2.928-7.678-2.928-10.607,0c-2.929,2.93-2.929,7.678,0,10.607l8.202,8.202
				c1.465,1.464,3.385,2.196,5.304,2.196s3.839-0.732,5.304-2.196c2.929-2.93,2.929-7.678,0-10.607L374.159,298.608z"/>
			<path style="fill:#39C1C2;" d="M336.538,282.202c1.465,1.464,3.385,2.196,5.304,2.196s3.839-0.732,5.304-2.196
				c2.929-2.93,2.929-7.678,0-10.607l-8.202-8.202c-2.93-2.928-7.678-2.928-10.607,0c-2.929,2.93-2.929,7.678,0,10.607
				L336.538,282.202z"/>
			<path style="fill:#39C1C2;" d="M368.759,284.302c1.937,0,3.873-0.746,5.341-2.234l8.144-8.26
				c2.908-2.949,2.874-7.698-0.075-10.606c-2.948-2.907-7.697-2.876-10.606,0.075l-8.144,8.26
				c-2.908,2.949-2.874,7.698,0.075,10.606C364.954,283.584,366.857,284.302,368.759,284.302z"/>
			<path style="fill:#39C1C2;" d="M336.598,298.743l-8.144,8.26c-2.908,2.949-2.874,7.698,0.075,10.606
				c1.461,1.44,3.363,2.159,5.266,2.159c1.937,0,3.873-0.746,5.341-2.234l8.144-8.26c2.908-2.949,2.874-7.698-0.075-10.606
				C344.256,295.76,339.507,295.793,336.598,298.743z"/>
			<path style="fill:#39C1C2;" d="M374.159,37.567c-2.93-2.929-7.678-2.929-10.607,0c-2.929,2.929-2.929,7.678,0,10.606l8.202,8.202
				c1.465,1.464,3.385,2.197,5.304,2.197s3.839-0.732,5.304-2.197c2.929-2.929,2.929-7.678,0-10.606L374.159,37.567z"/>
			<path style="fill:#39C1C2;" d="M336.538,21.159c1.465,1.464,3.385,2.197,5.304,2.197s3.839-0.732,5.304-2.197
				c2.929-2.929,2.929-7.678,0-10.606l-8.202-8.202c-2.93-2.929-7.678-2.929-10.607,0c-2.929,2.929-2.929,7.678,0,10.606
				L336.538,21.159z"/>
			<path style="fill:#39C1C2;" d="M368.759,23.26c1.937,0,3.873-0.746,5.341-2.234l8.144-8.26c2.908-2.95,2.874-7.699-0.075-10.606
				c-2.948-2.907-7.697-2.875-10.606,0.075l-8.144,8.26c-2.908,2.95-2.874,7.699,0.075,10.606
				C364.954,22.542,366.857,23.26,368.759,23.26z"/>
			<path style="fill:#39C1C2;" d="M336.598,37.7l-8.144,8.261c-2.908,2.95-2.874,7.698,0.075,10.606
				c1.462,1.441,3.363,2.159,5.266,2.159c1.937,0,3.874-0.746,5.341-2.235l8.144-8.261c2.908-2.95,2.874-7.698-0.075-10.606
				C344.254,34.716,339.505,34.749,336.598,37.7z"/>
			<path style="fill:#39C1C2;" d="M94.866,48.837c13.236,0,24.005-10.769,24.005-24.005S108.102,0.827,94.866,0.827
				S70.861,11.595,70.861,24.832S81.629,48.837,94.866,48.837z M94.866,15.827c4.965,0,9.005,4.04,9.005,9.005
				s-4.04,9.005-9.005,9.005s-9.005-4.04-9.005-9.005S89.9,15.827,94.866,15.827z"/>
			<path style="fill:#39C1C2;" d="M235.538,128.135c13.236,0,24.005-10.769,24.005-24.005c0-13.236-10.769-24.005-24.005-24.005
				s-24.005,10.769-24.005,24.005C211.533,117.366,222.302,128.135,235.538,128.135z M235.538,95.125
				c4.965,0,9.005,4.04,9.005,9.005s-4.04,9.005-9.005,9.005s-9.005-4.04-9.005-9.005S230.574,95.125,235.538,95.125z"/>
			<path style="fill:#39C1C2;" d="M336.392,146.09c0,13.236,10.769,24.005,24.006,24.005c13.236,0,24.005-10.769,24.005-24.005
				s-10.769-24.005-24.005-24.005C347.16,122.086,336.392,132.854,336.392,146.09z M360.398,137.086c4.965,0,9.005,4.04,9.005,9.005
				s-4.04,9.005-9.005,9.005c-4.966,0-9.006-4.04-9.006-9.005S355.432,137.086,360.398,137.086z"/>
			<path style="fill:#39C1C2;" d="M368.355,214.065c1.744-3.757,0.112-8.217-3.645-9.961c-43.915-20.389-77.576-14.233-98.085-5.479
				c-13.637,5.822-23.359,13.486-28.997,18.735L224.8,204.533l16.668-16.669c2.929-2.929,2.929-7.678,0-10.606
				c-2.93-2.929-7.678-2.929-10.607,0l-16.668,16.668l-48.506-48.506c4.101-5.828,10.306-15.919,14.838-28.976
				c9.64-27.776,7.112-55.812-7.309-81.08c-2.053-3.599-6.635-4.85-10.231-2.796c-3.597,2.053-4.849,6.634-2.796,10.231
				c12.296,21.544,14.428,44.5,6.335,68.231c-3.459,10.142-8.152,18.323-11.638,23.59l-30.98-30.98
				c-4.463-4.463-10.811-6.32-16.974-4.972c-6.166,1.35-11.154,5.689-13.344,11.608L1.171,360.025
				c-2.525,6.823-0.902,14.262,4.236,19.412c3.548,3.557,8.189,5.44,12.972,5.44c2.144,0,4.316-0.379,6.43-1.155l250.274-91.891
				c5.935-2.179,10.288-7.165,11.647-13.338s-0.498-12.527-4.967-16.997l-33.532-33.532c4.669-4.291,12.806-10.645,24.283-15.544
				c25.75-10.991,54.643-9.213,85.879,5.289C362.151,219.452,366.611,217.821,368.355,214.065z M19.639,369.642
				c-1.86,0.684-3.145-0.331-3.611-0.798c-0.466-0.468-1.477-1.756-0.789-3.614l17.096-46.199l33.609,33.61L19.639,369.642z
				 M81.46,346.944l-43.396-43.397l8.106-21.906l57.242,57.242L81.46,346.944z M118.929,333.187L51.9,266.157l18.86-50.966
				l99.243,99.243L118.929,333.187z M271.157,272.104c1.156,1.156,1.076,2.479,0.925,3.164c-0.15,0.686-0.633,1.919-2.168,2.483
				l-47.577,17.468l-42.587-42.586c-2.929-2.928-7.678-2.928-10.606,0c-2.929,2.93-2.929,7.678,0,10.607l37.676,37.676l-21.3,7.82
				l-109.03-109.03l7.8-21.079l37.582,37.583c1.464,1.464,3.384,2.196,5.303,2.196c1.919,0,3.839-0.732,5.303-2.196
				c2.929-2.93,2.929-7.678,0-10.607l-42.459-42.459l17.637-47.662c0.567-1.531,1.8-2.011,2.484-2.161
				c0.208-0.045,0.474-0.084,0.775-0.084c0.694,0,1.58,0.206,2.384,1.01l95.576,95.577c0.005,0.005,0.008,0.01,0.013,0.014
				s0.01,0.008,0.014,0.013l23.533,23.533c0.005,0.005,0.009,0.009,0.014,0.013L271.157,272.104z"/>
			<path style="fill:#39C1C2;" d="M252.979,165.191c1.464,1.465,3.384,2.197,5.303,2.197s3.839-0.732,5.304-2.197l7.654-7.655
				c2.929-2.929,2.929-7.678-0.001-10.607c-2.928-2.929-7.677-2.928-10.606,0l-7.654,7.655
				C250.049,157.514,250.049,162.262,252.979,165.191z"/>
			<path style="fill:#39C1C2;" d="M154.969,228.239c-2.93-2.928-7.679-2.925-10.606,0.005c-2.928,2.931-2.925,7.679,0.005,10.606
				l0.533,0.532c1.464,1.463,3.382,2.194,5.301,2.194c1.92,0,3.841-0.733,5.306-2.199c2.928-2.931,2.925-7.679-0.005-10.606
				L154.969,228.239z"/>
		</g>
	</g>
	<path style="fill:#39C1C2;" d="M223.212,58.913c-4.085,0-7.429-3.277-7.497-7.376c-0.114-6.901,5.274-20.47,26.478-22.422
		c13.001-1.197,14.609-13.333,14.749-14.713c0.346-4.127,3.965-7.165,8.098-6.815c4.127,0.346,7.19,4.005,6.844,8.132
		c-0.751,8.967-7.637,26.428-28.315,28.333c-12.399,1.142-12.857,7.178-12.856,7.239c0.068,4.142-3.234,7.554-7.375,7.623
		C223.296,58.913,223.254,58.913,223.212,58.913z"/>
	<path style="fill:#39C1C2;" d="M337.476,83.975c0.07-4.084-3.149-7.484-7.246-7.622c-6.898-0.233-20.557,4.921-22.875,26.088
		c-1.421,12.979-13.582,14.378-14.965,14.494c-4.133,0.275-7.232,3.841-6.954,7.979c0.275,4.133,3.881,7.258,8.013,6.983
		c8.978-0.597,26.556-7.181,28.816-27.824c1.355-12.377,7.398-12.731,7.459-12.729c4.14,0.14,7.609-3.103,7.748-7.243
		C337.474,84.059,337.475,84.017,337.476,83.975z"/>
</g>
</svg>
