<svg xmlns="http://www.w3.org/2000/svg" viewBox="0 0 1200 146.358" width="1200" height="146.358"><path style="fill:#355478" d="m547.126 44.452-1.624 4.382a1428.169 1428.169 0 0 0 23.613-3.497l-2.796-3.743a1394.24 1394.24 0 0 1-19.191 2.859l-.002-.001zm92.326-16.246-1.325 4.476a1503.675 1503.675 0 0 0 20.189-4.351l-3.028-3.553a1574.537 1574.537 0 0 1-15.836 3.428zM451.723 54.651l-1.904 4.262c8.646-.607 17.297-1.29 25.953-2.049l-2.539-3.921c-7.173.631-14.343 1.199-21.51 1.708zM738.101 3.887a2154.412 2154.412 0 0 1-10.566 2.91l-1.036 4.554c1.512-.415 3.025-.824 4.537-1.236 1.275-.347 6.904-1.904 8.177-2.262a2.06 2.06 0 0 0-1.112-3.966zm-471.4 51.261-2.478 3.953c8.336.583 16.698 1.061 25.077 1.483l-1.939-4.212c-6.901-.358-13.788-.766-20.66-1.224zm-92.584-9.815-2.788 3.76c7.6 1.12 15.394 2.184 23.338 3.193l-1.691-4.367a1143.825 1143.825 0 0 1-18.859-2.586zM85.59 28.879l-3.108 3.511a1077.391 1077.391 0 0 0 21.001 4.625l-1.347-4.498c-5.7-1.208-11.216-2.421-16.547-3.641l.001.003zm275.514 29.238-2.248 4.136c7.15-.018 14.31-.095 21.478-.229l-2.281-4.081c-5.655.096-11.305.153-16.949.174zM16.199 9.939C10.871 8.164 6.368 6.553 2.808 5.163A2.06 2.06 0 0 0 1.312 9c3.935 1.534 9.011 3.344 15.092 5.343l-.904-4.59.695.185.004.001zM1176.1 73.097l-2.124 4.157c8.666-.154 17.341-.382 26.024-.688l-2.331-4.048c-7.196.254-14.386.446-21.569.579zm-184.795-9.186-2.682 3.817c8.295 1.019 16.62 1.934 24.965 2.794l-1.716-4.307a1439.4 1439.4 0 0 1-20.567-2.304zm-91.944-14.647-2.981 3.609a1186.267 1186.267 0 0 0 23.139 4.41l-1.46-4.45a1147.666 1147.666 0 0 1-18.698-3.569zm-87.544-21.065-3.288 3.343a1061.224 1061.224 0 0 0 20.73 5.717l-1.11-4.562a1033.528 1033.528 0 0 1-16.333-4.503l.001.005zm273.607 43.617-2.462 4.013c7.142.356 14.295.654 21.461.895l-2.064-4.195c-5.654-.2-11.299-.438-16.935-.713zM743.513 5.654c-5.229-2.051-9.641-3.896-13.123-5.471a2.06 2.06 0 0 0-1.695 3.753c3.849 1.738 8.824 3.811 14.791 6.126l-.662-4.631.684.221.005.002z"/><path style="fill:#e05a62" d="m16.199 9.939-.695-.185.903 4.59c15.66 5.151 38.142 11.593 66.074 18.049l3.108-3.511c-29.719-6.803-53.394-13.62-69.39-18.943zM440.343 55.45a1337.234 1337.234 0 0 1-62.289 2.491l2.281 4.081a1365.325 1365.325 0 0 0 60.157-2.457c3.107-.196 6.218-.434 9.328-.654l1.904-4.262c-3.794.272-7.589.558-11.38.798l-.001.003zM32.036 28.879a62.37 62.37 0 0 1 .72-9.456 560.923 560.923 0 0 1-16.349-5.082l14.916 75.836 17.131-19.35a61.553 61.553 0 0 1-16.418-41.943v-.005zm372.632 44.185a61.546 61.546 0 0 1-2.417-11.646c-7.312.254-14.62.469-21.917.608l37.838 67.744 10.726-24.017a61.961 61.961 0 0 1-24.23-32.689zm338.845-67.41-.684-.221.662 4.631c15.369 5.964 37.483 13.573 65.039 21.483l3.288-3.343c-29.325-8.351-52.61-16.398-68.305-22.55zm421.18 67.646c-20.846.227-41.624-.031-62.334-.773l2.064 4.195c19.994.673 40.062.905 60.203.695 3.113-.033 6.232-.109 9.35-.165l2.124-4.157c-3.803.073-7.608.161-11.406.201l-.001.004zM758.336 25.396a62.297 62.297 0 0 1 1.214-9.405 568.322 568.322 0 0 1-16.061-5.93l10.927 76.512 18.12-18.427a61.55 61.55 0 0 1-14.2-42.744v-.006zm369.809 63.626a61.465 61.465 0 0 1-1.804-11.756c-7.315-.129-14.624-.297-21.919-.54l34.241 69.632 11.968-23.423a61.958 61.958 0 0 1-22.486-33.913z"/><path style="fill:#f6636b" d="M32.756 19.423a61.678 61.678 0 0 0 15.699 51.403L82.482 32.39c-19.342-4.471-36.066-8.934-49.726-12.967zm407.733 40.144a1292.4 1292.4 0 0 1-38.24 1.851 61.607 61.607 0 0 0 26.649 44.336l20.919-46.84c-3.109.217-6.22.457-9.328.653zM759.55 15.99a61.677 61.677 0 0 0 12.987 52.154l35.993-36.603c-19.082-5.476-35.549-10.809-48.98-15.551zm405.074 61.429a1288.48 1288.48 0 0 1-38.284-.154 61.606 61.606 0 0 0 24.292 45.67l23.342-45.681c-3.118.055-6.236.131-9.35.165z"/><path style="fill:#f59f2e" d="m102.136 32.517 1.347 4.494a1143.55 1143.55 0 0 0 67.846 12.078l2.788-3.76c-26.282-3.821-50.44-8.249-71.981-12.812zm371.098 20.427 2.539 3.921a1378.945 1378.945 0 0 0 69.731-8.031l1.624-4.382a1389.188 1389.188 0 0 1-73.894 8.492zM124.81 62.865a61.788 61.788 0 0 1-2.788-18.41c0-1.243.047-2.475.12-3.699a1169.187 1169.187 0 0 1-18.658-3.734l22.1 73.736 15.831-21.342a61.842 61.842 0 0 1-16.605-26.552v.001zm377.987 4.382a61.64 61.64 0 0 1-2.53-12.822c-8.167.88-16.333 1.712-24.494 2.441l42.454 65.574 8.432-22.752a61.963 61.963 0 0 1-23.862-32.441zM828.15 32.698l1.11 4.558a1145.056 1145.056 0 0 0 67.12 15.613l2.981-3.609c-26.045-5.192-49.939-10.879-71.211-16.562zm21.055 31.493a61.755 61.755 0 0 1-1.821-18.53c.065-1.241.176-2.469.313-3.688a1155.443 1155.443 0 0 1-18.437-4.706l18.211 74.792 16.926-20.484a61.845 61.845 0 0 1-15.193-27.385l.001.001z"/><path style="fill:#f5b02e" d="M122.142 40.753a62.948 62.948 0 0 0-.12 3.699 61.634 61.634 0 0 0 19.394 44.966l29.913-40.324a1161.432 1161.432 0 0 1-49.188-8.336l.001-.005zm378.125 13.671a61.567 61.567 0 0 0 26.392 45.26l18.844-50.85a1372.98 1372.98 0 0 1-45.236 5.59zm347.43-12.455a62.906 62.906 0 0 0-.313 3.688 61.634 61.634 0 0 0 17.013 45.919l31.982-38.704a1162.501 1162.501 0 0 1-48.684-10.899l.002-.004z"/><path style="fill:#2fadad" d="M209.001 49.885c-5.42-.623-10.761-1.277-16.026-1.963l1.691 4.367c4.52.575 9.075 1.136 13.7 1.668a1242.67 1242.67 0 0 0 55.855 5.147l2.478-3.953a1260.019 1260.019 0 0 1-57.698-5.266zm357.317-8.291 2.796 3.743a1412.754 1412.754 0 0 0 69.013-12.654l1.325-4.476a1429.363 1429.363 0 0 1-73.134 13.387zM221.425 77.733a61.788 61.788 0 0 1-2.788-18.41c0-1.422.065-2.829.16-4.227-3.48-.37-6.96-.74-10.429-1.139a1146.72 1146.72 0 0 1-13.701-1.668l28.182 72.798 13.857-22.099a61.787 61.787 0 0 1-15.283-25.254l.002-.001zm372.801-26.638a61.518 61.518 0 0 1-2.157-9.603 1380.107 1380.107 0 0 1-22.956 3.843l46.745 62.573 6.426-21.709a62.002 62.002 0 0 1-28.057-35.105l-.001.001zm339.734 4.539a1067.634 1067.634 0 0 1-15.901-2.799l1.46 4.45c4.483.811 9.003 1.609 13.594 2.383 18.338 3.09 36.84 5.777 55.509 8.063l2.682-3.817a1260.836 1260.836 0 0 1-57.344-8.28zm10.949 28.46a61.755 61.755 0 0 1-1.821-18.53c.075-1.421.213-2.822.381-4.213-3.456-.551-6.911-1.103-10.355-1.684-4.592-.774-9.111-1.573-13.595-2.383l24.334 74.173 14.994-21.344a61.8 61.8 0 0 1-13.941-26.019h.003z"/><path style="fill:#39c2c2" d="M218.792 55.095a62.25 62.25 0 0 0-.16 4.227 61.579 61.579 0 0 0 18.068 43.666l27.517-43.885a1256.76 1256.76 0 0 1-45.425-4.008zm373.277-13.602a61.608 61.608 0 0 0 30.214 44.708l15.843-53.518a1420.267 1420.267 0 0 1-46.057 8.81zM943.464 61.35a61.368 61.368 0 0 0-.38 4.213 61.58 61.58 0 0 0 15.758 44.552l29.777-42.385a1257.405 1257.405 0 0 1-45.155-6.38z"/><path style="fill:#2c4563" d="m287.36 56.373 1.939 4.212c21.883 1.1 43.892 1.661 66.026 1.683 1.176 0 2.353-.01 3.531-.014l2.248-4.136c-24.72.107-49.301-.475-73.744-1.745zm367.927-31.595 3.028 3.553a1454.318 1454.318 0 0 0 68.183-16.98l1.036-4.554a1453.914 1453.914 0 0 1-72.247 17.981zM316.351 80.437a61.82 61.82 0 0 1-2.788-18.41c0-.155.01-.307.011-.462-8.107-.261-16.203-.572-24.275-.978l32.318 70.181 12.399-22.811a61.857 61.857 0 0 1-17.665-27.52zm372.257-50.673a61.62 61.62 0 0 1-1.921-8.099 1538.013 1538.013 0 0 1-28.372 6.666l50.777 59.575 5.521-24.282a61.979 61.979 0 0 1-26.005-33.86zm323.264 36.451 1.716 4.307a1342.014 1342.014 0 0 0 65.847 5.136c1.174.062 2.351.113 3.527.171l2.462-4.013a1311.976 1311.976 0 0 1-73.552-5.601zm27.691 25.548a61.82 61.82 0 0 1-1.821-18.53c.008-.155.027-.307.036-.461-8.082-.684-16.151-1.42-24.19-2.246l28.601 71.776 13.575-22.131a61.878 61.878 0 0 1-16.201-28.408z"/><path style="fill:#355478" d="M355.326 62.267c-13.964 0-27.881-.235-41.752-.705 0 .155-.011.307-.011.462a61.596 61.596 0 0 0 20.454 45.93l24.84-45.701c-1.177 0-2.355.014-3.531.014zm331.361-40.605a61.528 61.528 0 0 0 27.927 41.959L726.5 11.345a1396.644 1396.644 0 0 1-39.813 10.317zm392.749 53.996a1234.378 1234.378 0 0 1-41.658-2.889c-.008.155-.027.307-.036.461a61.598 61.598 0 0 0 18.022 46.938l27.198-44.339c-1.174-.061-2.352-.11-3.526-.171z"/></svg>