<?xml version="1.0" encoding="UTF-8"?>
<svg id="_ĎŽÓť_1" data-name="ĎŽÓť 1" xmlns="http://www.w3.org/2000/svg" version="1.1" viewBox="0 0 696.5 821.1">
  <defs>
    <style>
      .cls-1 {
        fill: #f5b02e;
        stroke-width: 0px;
      }
    </style>
  </defs>
  <path class="cls-1" d="M430,720.3h-164.3c-9.9,0-17.9-8-17.9-17.9s8-17.9,17.9-17.9h164.3c9.9,0,17.9,8,17.9,17.9s-8,17.9-17.9,17.9Z"/>
  <path class="cls-1" d="M420,772.2h-144.4c-9.9,0-17.9-8-17.9-17.9s8-17.9,17.9-17.9h144.4c9.9,0,17.9,8,17.9,17.9,0,9.9-8,17.9-17.9,17.9Z"/>
  <path class="cls-1" d="M388.2,821.1h-82.8c-9.9,0-17.9-8-17.9-17.9s8-17.9,17.9-17.9h82.8c9.9,0,17.9,8,17.9,17.9s-8,17.9-17.9,17.9Z"/>
  <path class="cls-1" d="M538.2,171.8c-4.6,0-9.1-1.7-12.6-5.2-7-7-7-18.3,0-25.3l48.5-48.8c7-7,18.3-7,25.3,0,7,7,7,18.3,0,25.3l-48.5,48.8c-3.5,3.5-8.1,5.3-12.7,5.3Z"/>
  <path class="cls-1" d="M415.5,102.4c-1.5,0-3-.2-4.6-.6-9.6-2.5-15.3-12.3-12.8-21.9l17.5-66.6c2.5-9.6,12.3-15.3,21.9-12.8,9.6,2.5,15.3,12.3,12.8,21.9l-17.5,66.6c-2.1,8-9.4,13.4-17.3,13.4Z"/>
  <path class="cls-1" d="M274.5,103.9c-7.9,0-15.1-5.2-17.3-13.2l-18.2-66.4c-2.6-9.5,3-19.4,12.5-22,9.5-2.6,19.4,3,22,12.5l18.2,66.4c2.6,9.5-3,19.4-12.5,22-1.6.4-3.2.6-4.8.6Z"/>
  <path class="cls-1" d="M153.3,175.9c-4.5,0-9.1-1.7-12.6-5.1l-49.1-48.3c-7-6.9-7.1-18.3-.2-25.3,6.9-7,18.3-7.1,25.3-.2l49.1,48.3c7,6.9,7.1,18.3.2,25.3-3.5,3.6-8.1,5.3-12.8,5.3Z"/>
  <path class="cls-1" d="M84.6,299c-1.5,0-3-.2-4.5-.6l-66.7-17.2c-9.6-2.5-15.3-12.2-12.9-21.8,2.5-9.6,12.2-15.3,21.8-12.9l66.7,17.2c9.6,2.5,15.3,12.2,12.9,21.8-2.1,8.1-9.4,13.4-17.3,13.4Z"/>
  <path class="cls-1" d="M20.5,458.5c-7.8,0-15-5.2-17.2-13.1-2.7-9.5,2.9-19.4,12.4-22.1l66.3-18.6c9.5-2.7,19.4,2.9,22.1,12.4s-2.9,19.4-12.4,22.1l-66.3,18.6c-1.6.5-3.2.7-4.8.7Z"/>
  <path class="cls-1" d="M111.3,610c-4.5,0-9-1.7-12.5-5.1-7.1-6.9-7.2-18.2-.3-25.3l48-49.3c6.9-7.1,18.2-7.2,25.3-.3,7.1,6.9,7.2,18.2.3,25.3l-48,49.3c-3.5,3.6-8.2,5.4-12.8,5.4Z"/>
  <path class="cls-1" d="M593.7,600.5c-4.5,0-9-1.7-12.4-5l-49.5-47.8c-7.1-6.9-7.3-18.2-.5-25.3,6.9-7.1,18.2-7.3,25.3-.5l49.5,47.8c7.1,6.9,7.3,18.2.5,25.3-3.5,3.6-8.2,5.5-12.9,5.5Z"/>
  <path class="cls-1" d="M678.6,445.5c-1.4,0-2.9-.2-4.3-.5l-66.8-16.5c-9.6-2.4-15.5-12.1-13.1-21.7s12.1-15.5,21.7-13.1l66.8,16.5c9.6,2.4,15.5,12.1,13.1,21.7-2,8.2-9.3,13.6-17.4,13.6Z"/>
  <path class="cls-1" d="M608.1,288.1c-7.8,0-14.9-5.1-17.2-12.9-2.8-9.5,2.7-19.4,12.2-22.2l66.1-19.2c9.5-2.8,19.4,2.7,22.2,12.2,2.8,9.5-2.7,19.4-12.2,22.2l-66.1,19.2c-1.7.5-3.4.7-5,.7Z"/>
  <path class="cls-1" d="M86,281.8"/>
  <path class="cls-1" d="M538,266.4c-10.4-24.6-25.3-46.7-44.2-65.6-19-19-41-33.8-65.6-44.2-25.5-10.8-52.5-16.2-80.4-16.2s-54.9,5.5-80.4,16.2c-24.6,10.4-46.7,25.3-65.6,44.2-19,19-33.8,41-44.2,65.6-10.8,25.5-16.2,52.5-16.2,80.4s4,46.5,13,70.3c8.1,21.5,19.6,43.2,34.1,70.5,5.7,10.7,11.6,21.9,18.1,34.3,10.1,19.7,15,44.3,17.4,61.5.6,4.8,1.2,9.6,1.8,14.2,2,16.1,3.8,31.3,8,43.2,2.9,8.1,6.7,14.3,11.7,19,6.4,6,14.6,9.2,23.7,9.2h157.4c9.1,0,17.3-3.2,23.7-9.2,5-4.7,8.8-10.9,11.7-19,4.2-11.9,6.1-27.1,8-43.2.6-4.6,1.1-9.4,1.8-14.2,2.3-17.2,7.2-41.9,17.4-61.5,6.4-12.5,12.3-23.6,18.1-34.3,14.6-27.4,26.1-49,34.1-70.5,9-23.8,13-45.5,13-70.3,0-27.9-5.5-54.9-16.2-80.4ZM316.8,221.1c-14.1,3.4-27.4,9.2-39.6,17-12,7.8-22.6,17.4-31.5,28.6-9,11.3-16,23.9-20.8,37.4-5,14-7.5,28.7-7.5,43.8s1.4,21.9,4.1,32.5c2.1,8.3-2.9,16.7-11.1,18.8-1.3.3-2.6.5-3.8.5-6.9,0-13.2-4.6-15-11.6-3.3-13.1-5-26.6-5-40.1s3.1-36.8,9.3-54.1c6-16.8,14.6-32.4,25.8-46.3,11-13.8,24.1-25.7,39-35.3,15.1-9.8,31.6-16.9,49.1-21.1,8.3-2,16.7,3.1,18.7,11.4,2,8.3-3.1,16.7-11.4,18.7Z"/>
</svg>